<svg width="272" height="100" viewBox="0 0 272 100" fill="none" xmlns="http://www.w3.org/2000/svg">
<g filter="url(#filter0_df)">
<path d="M5.98438 51.3315C3.78387 49.6632 3.78387 46.9584 5.98438 45.2901L57.7813 6.02072C59.9818 4.35242 63.5495 4.35242 65.75 6.02072L117.547 45.2901C119.747 46.9584 119.747 49.6632 117.547 51.3315L65.75 90.6009C63.5495 92.2692 59.9818 92.2692 57.7813 90.6009L5.98438 51.3315Z" fill="#3167EB"/>
</g>
<g filter="url(#filter1_i)">
<path d="M39.3525 43.0703L43.1875 53.8984L47.002 43.0703H51.042V58H47.9556V53.9189L48.2632 46.8745L44.2334 58H42.1211L38.1016 46.8848L38.4092 53.9189V58H35.333V43.0703H39.3525ZM62.7109 51.5298H56.8047V55.5288H63.7363V58H53.7285V43.0703H63.7158V45.562H56.8047V49.1201H62.7109V51.5298ZM77.2612 53.0269C77.145 54.6333 76.5503 55.8979 75.4771 56.8208C74.4106 57.7437 73.0024 58.2051 71.2524 58.2051C69.3384 58.2051 67.8311 57.5625 66.7305 56.2773C65.6367 54.9854 65.0898 53.2148 65.0898 50.9658V50.0532C65.0898 48.6177 65.3428 47.353 65.8486 46.2593C66.3545 45.1655 67.0757 44.3281 68.0122 43.7471C68.9556 43.1592 70.0493 42.8652 71.2935 42.8652C73.0161 42.8652 74.4038 43.3267 75.4565 44.2495C76.5093 45.1724 77.1177 46.4678 77.2817 48.1357H74.2056C74.1304 47.1719 73.8604 46.4746 73.3955 46.0439C72.9375 45.6064 72.2368 45.3877 71.2935 45.3877C70.2681 45.3877 69.499 45.7568 68.9863 46.4951C68.4805 47.2266 68.2207 48.3647 68.207 49.9097V51.0376C68.207 52.6509 68.4497 53.8301 68.9351 54.5752C69.4272 55.3203 70.1997 55.6929 71.2524 55.6929C72.2026 55.6929 72.9102 55.4775 73.375 55.0469C73.8467 54.6094 74.1167 53.936 74.1851 53.0269H77.2612ZM87.0229 54.083C87.0229 53.502 86.8179 53.0576 86.4077 52.75C85.9976 52.4355 85.2593 52.1074 84.1929 51.7656C83.1265 51.417 82.2822 51.0752 81.6602 50.7402C79.9648 49.8242 79.1172 48.5903 79.1172 47.0386C79.1172 46.2319 79.3428 45.5142 79.7939 44.8853C80.252 44.2495 80.9048 43.7539 81.7524 43.3984C82.6069 43.043 83.564 42.8652 84.6235 42.8652C85.6899 42.8652 86.6401 43.0601 87.4741 43.4497C88.3081 43.8325 88.9541 44.376 89.4121 45.0801C89.877 45.7842 90.1094 46.584 90.1094 47.4795H87.0332C87.0332 46.7959 86.8179 46.2661 86.3872 45.8901C85.9565 45.5073 85.3516 45.3159 84.5723 45.3159C83.8203 45.3159 83.2358 45.4766 82.8188 45.7979C82.4019 46.1123 82.1934 46.5293 82.1934 47.0488C82.1934 47.5342 82.436 47.9409 82.9214 48.269C83.4136 48.5972 84.1348 48.9048 85.085 49.1919C86.835 49.7183 88.1099 50.3711 88.9097 51.1504C89.7095 51.9297 90.1094 52.9004 90.1094 54.0625C90.1094 55.3545 89.6206 56.3696 88.6431 57.1079C87.6655 57.8394 86.3496 58.2051 84.6953 58.2051C83.5469 58.2051 82.501 57.9966 81.5576 57.5796C80.6143 57.1558 79.8931 56.5781 79.394 55.8467C78.9019 55.1152 78.6558 54.2676 78.6558 53.3037H81.7422C81.7422 54.9512 82.7266 55.7749 84.6953 55.7749C85.4268 55.7749 85.9976 55.6279 86.4077 55.334C86.8179 55.0332 87.0229 54.6162 87.0229 54.083Z" fill="white"/>
</g>
<g filter="url(#filter2_b)">
<path d="M126.648 23.7812L130.75 34.6797L134.842 23.7812H138.035V38H135.574V33.3125L135.818 27.043L131.619 38H129.852L125.662 27.0527L125.906 33.3125V38H123.445V23.7812H126.648ZM144.432 34.6016L146.58 27.4336H149.109L144.91 39.6016C144.266 41.3789 143.172 42.2676 141.629 42.2676C141.284 42.2676 140.903 42.209 140.486 42.0918V40.2559L140.936 40.2852C141.535 40.2852 141.984 40.1745 142.283 39.9531C142.589 39.7383 142.83 39.3737 143.006 38.8594L143.348 37.9512L139.637 27.4336H142.195L144.432 34.6016ZM164.002 31.6523H158.162V36.0273H164.988V38H155.691V23.7812H164.92V25.7734H158.162V29.6992H164.002V31.6523ZM171.375 32.9121H166.248V30.998H171.375V32.9121ZM184.412 33.3711C184.269 34.888 183.709 36.0729 182.732 36.9258C181.756 37.7721 180.457 38.1953 178.836 38.1953C177.703 38.1953 176.704 37.9284 175.838 37.3945C174.979 36.8542 174.314 36.0892 173.846 35.0996C173.377 34.11 173.133 32.9609 173.113 31.6523V30.3242C173.113 28.9831 173.351 27.8014 173.826 26.7793C174.301 25.7572 174.982 24.9694 175.867 24.416C176.759 23.8626 177.788 23.5859 178.953 23.5859C180.522 23.5859 181.785 24.0124 182.742 24.8652C183.699 25.7181 184.256 26.9225 184.412 28.4785H181.951C181.834 27.4564 181.535 26.7207 181.053 26.2715C180.577 25.8158 179.878 25.5879 178.953 25.5879C177.879 25.5879 177.052 25.9818 176.473 26.7695C175.9 27.5508 175.607 28.6999 175.594 30.2168V31.4766C175.594 33.013 175.867 34.1849 176.414 34.9922C176.967 35.7995 177.775 36.2031 178.836 36.2031C179.806 36.2031 180.535 35.985 181.023 35.5488C181.512 35.1126 181.821 34.3867 181.951 33.3711H184.412ZM185.955 32.6191C185.955 31.584 186.16 30.653 186.57 29.8262C186.98 28.9928 187.557 28.3548 188.299 27.9121C189.041 27.4629 189.894 27.2383 190.857 27.2383C192.283 27.2383 193.439 27.6973 194.324 28.6152C195.216 29.5332 195.698 30.7507 195.77 32.2676L195.779 32.8242C195.779 33.8659 195.577 34.7969 195.174 35.6172C194.777 36.4375 194.204 37.0723 193.455 37.5215C192.713 37.9707 191.854 38.1953 190.877 38.1953C189.386 38.1953 188.191 37.7005 187.293 36.7109C186.401 35.7148 185.955 34.39 185.955 32.7363V32.6191ZM188.328 32.8242C188.328 33.9115 188.553 34.7643 189.002 35.3828C189.451 35.9948 190.076 36.3008 190.877 36.3008C191.678 36.3008 192.299 35.9883 192.742 35.3633C193.191 34.7383 193.416 33.8236 193.416 32.6191C193.416 31.5514 193.185 30.7051 192.723 30.0801C192.267 29.4551 191.645 29.1426 190.857 29.1426C190.083 29.1426 189.467 29.4518 189.012 30.0703C188.556 30.6823 188.328 31.6003 188.328 32.8242ZM200.018 27.4336L200.086 28.5371C200.828 27.6712 201.844 27.2383 203.133 27.2383C204.546 27.2383 205.512 27.7786 206.033 28.8594C206.801 27.7786 207.882 27.2383 209.275 27.2383C210.441 27.2383 211.307 27.5605 211.873 28.2051C212.446 28.8496 212.739 29.8001 212.752 31.0566V38H210.379V31.125C210.379 30.4544 210.232 29.9629 209.939 29.6504C209.646 29.3379 209.161 29.1816 208.484 29.1816C207.944 29.1816 207.501 29.3281 207.156 29.6211C206.818 29.9076 206.58 30.2852 206.443 30.7539L206.453 38H204.08V31.0469C204.048 29.8034 203.413 29.1816 202.176 29.1816C201.225 29.1816 200.551 29.569 200.154 30.3438V38H197.781V27.4336H200.018ZM217.42 27.4336L217.488 28.5371C218.23 27.6712 219.246 27.2383 220.535 27.2383C221.948 27.2383 222.915 27.7786 223.436 28.8594C224.204 27.7786 225.285 27.2383 226.678 27.2383C227.843 27.2383 228.709 27.5605 229.275 28.2051C229.848 28.8496 230.141 29.8001 230.154 31.0566V38H227.781V31.125C227.781 30.4544 227.635 29.9629 227.342 29.6504C227.049 29.3379 226.564 29.1816 225.887 29.1816C225.346 29.1816 224.904 29.3281 224.559 29.6211C224.22 29.9076 223.982 30.2852 223.846 30.7539L223.855 38H221.482V31.0469C221.45 29.8034 220.815 29.1816 219.578 29.1816C218.628 29.1816 217.954 29.569 217.557 30.3438V38H215.184V27.4336H217.42ZM237.244 38.1953C235.74 38.1953 234.52 37.7233 233.582 36.7793C232.651 35.8288 232.186 34.5658 232.186 32.9902V32.6973C232.186 31.6426 232.387 30.7018 232.791 29.875C233.201 29.0417 233.774 28.3939 234.51 27.9316C235.245 27.4694 236.066 27.2383 236.971 27.2383C238.41 27.2383 239.52 27.6973 240.301 28.6152C241.089 29.5332 241.482 30.832 241.482 32.5117V33.4688H234.578C234.65 34.3411 234.939 35.0312 235.447 35.5391C235.962 36.0469 236.606 36.3008 237.381 36.3008C238.468 36.3008 239.354 35.8613 240.037 34.9824L241.316 36.2031C240.893 36.8346 240.327 37.3262 239.617 37.6777C238.914 38.0228 238.123 38.1953 237.244 38.1953ZM236.961 29.1426C236.31 29.1426 235.783 29.3704 235.379 29.8262C234.982 30.2819 234.728 30.9167 234.617 31.7305H239.139V31.5547C239.087 30.7604 238.875 30.1615 238.504 29.7578C238.133 29.3477 237.618 29.1426 236.961 29.1426ZM248.865 29.6016C248.553 29.5495 248.23 29.5234 247.898 29.5234C246.811 29.5234 246.079 29.9401 245.701 30.7734V38H243.328V27.4336H245.594L245.652 28.6152C246.225 27.6973 247.02 27.2383 248.035 27.2383C248.374 27.2383 248.654 27.2839 248.875 27.375L248.865 29.6016ZM254.51 36.3008C255.102 36.3008 255.594 36.1283 255.984 35.7832C256.375 35.4382 256.583 35.0117 256.609 34.5039H258.846C258.82 35.1615 258.615 35.7767 258.23 36.3496C257.846 36.916 257.326 37.3652 256.668 37.6973C256.01 38.0293 255.301 38.1953 254.539 38.1953C253.061 38.1953 251.889 37.7168 251.023 36.7598C250.158 35.8027 249.725 34.4811 249.725 32.7949V32.5508C249.725 30.9427 250.154 29.6569 251.014 28.6934C251.873 27.7233 253.045 27.2383 254.529 27.2383C255.786 27.2383 256.808 27.6061 257.596 28.3418C258.39 29.071 258.807 30.0312 258.846 31.2227H256.609C256.583 30.6172 256.375 30.1191 255.984 29.7285C255.6 29.3379 255.109 29.1426 254.51 29.1426C253.742 29.1426 253.149 29.4225 252.732 29.9824C252.316 30.5358 252.104 31.3789 252.098 32.5117V32.8926C252.098 34.0384 252.303 34.8945 252.713 35.4609C253.13 36.0208 253.729 36.3008 254.51 36.3008ZM265.291 38.1953C263.787 38.1953 262.566 37.7233 261.629 36.7793C260.698 35.8288 260.232 34.5658 260.232 32.9902V32.6973C260.232 31.6426 260.434 30.7018 260.838 29.875C261.248 29.0417 261.821 28.3939 262.557 27.9316C263.292 27.4694 264.113 27.2383 265.018 27.2383C266.456 27.2383 267.566 27.6973 268.348 28.6152C269.135 29.5332 269.529 30.832 269.529 32.5117V33.4688H262.625C262.697 34.3411 262.986 35.0312 263.494 35.5391C264.008 36.0469 264.653 36.3008 265.428 36.3008C266.515 36.3008 267.4 35.8613 268.084 34.9824L269.363 36.2031C268.94 36.8346 268.374 37.3262 267.664 37.6777C266.961 38.0228 266.17 38.1953 265.291 38.1953ZM265.008 29.1426C264.357 29.1426 263.829 29.3704 263.426 29.8262C263.029 30.2819 262.775 30.9167 262.664 31.7305H267.186V31.5547C267.133 30.7604 266.922 30.1615 266.551 29.7578C266.18 29.3477 265.665 29.1426 265.008 29.1426Z" fill="#B1B9CC"/>
<path d="M126.648 23.7812L130.75 34.6797L134.842 23.7812H138.035V38H135.574V33.3125L135.818 27.043L131.619 38H129.852L125.662 27.0527L125.906 33.3125V38H123.445V23.7812H126.648ZM144.432 34.6016L146.58 27.4336H149.109L144.91 39.6016C144.266 41.3789 143.172 42.2676 141.629 42.2676C141.284 42.2676 140.903 42.209 140.486 42.0918V40.2559L140.936 40.2852C141.535 40.2852 141.984 40.1745 142.283 39.9531C142.589 39.7383 142.83 39.3737 143.006 38.8594L143.348 37.9512L139.637 27.4336H142.195L144.432 34.6016ZM164.002 31.6523H158.162V36.0273H164.988V38H155.691V23.7812H164.92V25.7734H158.162V29.6992H164.002V31.6523ZM171.375 32.9121H166.248V30.998H171.375V32.9121ZM184.412 33.3711C184.269 34.888 183.709 36.0729 182.732 36.9258C181.756 37.7721 180.457 38.1953 178.836 38.1953C177.703 38.1953 176.704 37.9284 175.838 37.3945C174.979 36.8542 174.314 36.0892 173.846 35.0996C173.377 34.11 173.133 32.9609 173.113 31.6523V30.3242C173.113 28.9831 173.351 27.8014 173.826 26.7793C174.301 25.7572 174.982 24.9694 175.867 24.416C176.759 23.8626 177.788 23.5859 178.953 23.5859C180.522 23.5859 181.785 24.0124 182.742 24.8652C183.699 25.7181 184.256 26.9225 184.412 28.4785H181.951C181.834 27.4564 181.535 26.7207 181.053 26.2715C180.577 25.8158 179.878 25.5879 178.953 25.5879C177.879 25.5879 177.052 25.9818 176.473 26.7695C175.9 27.5508 175.607 28.6999 175.594 30.2168V31.4766C175.594 33.013 175.867 34.1849 176.414 34.9922C176.967 35.7995 177.775 36.2031 178.836 36.2031C179.806 36.2031 180.535 35.985 181.023 35.5488C181.512 35.1126 181.821 34.3867 181.951 33.3711H184.412ZM185.955 32.6191C185.955 31.584 186.16 30.653 186.57 29.8262C186.98 28.9928 187.557 28.3548 188.299 27.9121C189.041 27.4629 189.894 27.2383 190.857 27.2383C192.283 27.2383 193.439 27.6973 194.324 28.6152C195.216 29.5332 195.698 30.7507 195.77 32.2676L195.779 32.8242C195.779 33.8659 195.577 34.7969 195.174 35.6172C194.777 36.4375 194.204 37.0723 193.455 37.5215C192.713 37.9707 191.854 38.1953 190.877 38.1953C189.386 38.1953 188.191 37.7005 187.293 36.7109C186.401 35.7148 185.955 34.39 185.955 32.7363V32.6191ZM188.328 32.8242C188.328 33.9115 188.553 34.7643 189.002 35.3828C189.451 35.9948 190.076 36.3008 190.877 36.3008C191.678 36.3008 192.299 35.9883 192.742 35.3633C193.191 34.7383 193.416 33.8236 193.416 32.6191C193.416 31.5514 193.185 30.7051 192.723 30.0801C192.267 29.4551 191.645 29.1426 190.857 29.1426C190.083 29.1426 189.467 29.4518 189.012 30.0703C188.556 30.6823 188.328 31.6003 188.328 32.8242ZM200.018 27.4336L200.086 28.5371C200.828 27.6712 201.844 27.2383 203.133 27.2383C204.546 27.2383 205.512 27.7786 206.033 28.8594C206.801 27.7786 207.882 27.2383 209.275 27.2383C210.441 27.2383 211.307 27.5605 211.873 28.2051C212.446 28.8496 212.739 29.8001 212.752 31.0566V38H210.379V31.125C210.379 30.4544 210.232 29.9629 209.939 29.6504C209.646 29.3379 209.161 29.1816 208.484 29.1816C207.944 29.1816 207.501 29.3281 207.156 29.6211C206.818 29.9076 206.58 30.2852 206.443 30.7539L206.453 38H204.08V31.0469C204.048 29.8034 203.413 29.1816 202.176 29.1816C201.225 29.1816 200.551 29.569 200.154 30.3438V38H197.781V27.4336H200.018ZM217.42 27.4336L217.488 28.5371C218.23 27.6712 219.246 27.2383 220.535 27.2383C221.948 27.2383 222.915 27.7786 223.436 28.8594C224.204 27.7786 225.285 27.2383 226.678 27.2383C227.843 27.2383 228.709 27.5605 229.275 28.2051C229.848 28.8496 230.141 29.8001 230.154 31.0566V38H227.781V31.125C227.781 30.4544 227.635 29.9629 227.342 29.6504C227.049 29.3379 226.564 29.1816 225.887 29.1816C225.346 29.1816 224.904 29.3281 224.559 29.6211C224.22 29.9076 223.982 30.2852 223.846 30.7539L223.855 38H221.482V31.0469C221.45 29.8034 220.815 29.1816 219.578 29.1816C218.628 29.1816 217.954 29.569 217.557 30.3438V38H215.184V27.4336H217.42ZM237.244 38.1953C235.74 38.1953 234.52 37.7233 233.582 36.7793C232.651 35.8288 232.186 34.5658 232.186 32.9902V32.6973C232.186 31.6426 232.387 30.7018 232.791 29.875C233.201 29.0417 233.774 28.3939 234.51 27.9316C235.245 27.4694 236.066 27.2383 236.971 27.2383C238.41 27.2383 239.52 27.6973 240.301 28.6152C241.089 29.5332 241.482 30.832 241.482 32.5117V33.4688H234.578C234.65 34.3411 234.939 35.0312 235.447 35.5391C235.962 36.0469 236.606 36.3008 237.381 36.3008C238.468 36.3008 239.354 35.8613 240.037 34.9824L241.316 36.2031C240.893 36.8346 240.327 37.3262 239.617 37.6777C238.914 38.0228 238.123 38.1953 237.244 38.1953ZM236.961 29.1426C236.31 29.1426 235.783 29.3704 235.379 29.8262C234.982 30.2819 234.728 30.9167 234.617 31.7305H239.139V31.5547C239.087 30.7604 238.875 30.1615 238.504 29.7578C238.133 29.3477 237.618 29.1426 236.961 29.1426ZM248.865 29.6016C248.553 29.5495 248.23 29.5234 247.898 29.5234C246.811 29.5234 246.079 29.9401 245.701 30.7734V38H243.328V27.4336H245.594L245.652 28.6152C246.225 27.6973 247.02 27.2383 248.035 27.2383C248.374 27.2383 248.654 27.2839 248.875 27.375L248.865 29.6016ZM254.51 36.3008C255.102 36.3008 255.594 36.1283 255.984 35.7832C256.375 35.4382 256.583 35.0117 256.609 34.5039H258.846C258.82 35.1615 258.615 35.7767 258.23 36.3496C257.846 36.916 257.326 37.3652 256.668 37.6973C256.01 38.0293 255.301 38.1953 254.539 38.1953C253.061 38.1953 251.889 37.7168 251.023 36.7598C250.158 35.8027 249.725 34.4811 249.725 32.7949V32.5508C249.725 30.9427 250.154 29.6569 251.014 28.6934C251.873 27.7233 253.045 27.2383 254.529 27.2383C255.786 27.2383 256.808 27.6061 257.596 28.3418C258.39 29.071 258.807 30.0312 258.846 31.2227H256.609C256.583 30.6172 256.375 30.1191 255.984 29.7285C255.6 29.3379 255.109 29.1426 254.51 29.1426C253.742 29.1426 253.149 29.4225 252.732 29.9824C252.316 30.5358 252.104 31.3789 252.098 32.5117V32.8926C252.098 34.0384 252.303 34.8945 252.713 35.4609C253.13 36.0208 253.729 36.3008 254.51 36.3008ZM265.291 38.1953C263.787 38.1953 262.566 37.7233 261.629 36.7793C260.698 35.8288 260.232 34.5658 260.232 32.9902V32.6973C260.232 31.6426 260.434 30.7018 260.838 29.875C261.248 29.0417 261.821 28.3939 262.557 27.9316C263.292 27.4694 264.113 27.2383 265.018 27.2383C266.456 27.2383 267.566 27.6973 268.348 28.6152C269.135 29.5332 269.529 30.832 269.529 32.5117V33.4688H262.625C262.697 34.3411 262.986 35.0312 263.494 35.5391C264.008 36.0469 264.653 36.3008 265.428 36.3008C266.515 36.3008 267.4 35.8613 268.084 34.9824L269.363 36.2031C268.94 36.8346 268.374 37.3262 267.664 37.6777C266.961 38.0228 266.17 38.1953 265.291 38.1953ZM265.008 29.1426C264.357 29.1426 263.829 29.3704 263.426 29.8262C263.029 30.2819 262.775 30.9167 262.664 31.7305H267.186V31.5547C267.133 30.7604 266.922 30.1615 266.551 29.7578C266.18 29.3477 265.665 29.1426 265.008 29.1426Z" fill="url(#paint0_linear)"/>
</g>
<rect width="110" height="0.525166" transform="translate(142 81)" fill="#BFBFBF" fill-opacity="0.4"/>
<g filter="url(#filter3_d)">
<path d="M148.22 68.9087C145.406 68.0998 143.355 67.1086 142.067 65.9351C140.791 64.7502 140.153 63.2918 140.153 61.5601C140.153 59.6004 140.934 57.9826 142.495 56.7065C144.067 55.4191 146.106 54.7754 148.613 54.7754C150.322 54.7754 151.843 55.1058 153.176 55.7666C154.52 56.4274 155.557 57.3389 156.286 58.501C157.027 59.6631 157.397 60.9334 157.397 62.312H154.099C154.099 60.8081 153.62 59.6289 152.663 58.7744C151.706 57.9085 150.356 57.4756 148.613 57.4756C146.995 57.4756 145.73 57.8345 144.819 58.5522C143.919 59.2586 143.469 60.2441 143.469 61.5088C143.469 62.5228 143.896 63.383 144.75 64.0894C145.616 64.7843 147.08 65.4224 149.143 66.0034C151.216 66.5845 152.834 67.2282 153.996 67.9346C155.17 68.6296 156.035 69.4442 156.594 70.3784C157.163 71.3127 157.448 72.4121 157.448 73.6768C157.448 75.6934 156.662 77.3112 155.09 78.5303C153.518 79.738 151.416 80.3418 148.784 80.3418C147.075 80.3418 145.48 80.0171 143.999 79.3677C142.517 78.7069 141.372 77.8068 140.563 76.6675C139.766 75.5282 139.367 74.235 139.367 72.7881H142.666C142.666 74.292 143.218 75.4826 144.323 76.3599C145.44 77.2257 146.927 77.6587 148.784 77.6587C150.515 77.6587 151.843 77.3055 152.766 76.5991C153.688 75.8927 154.15 74.93 154.15 73.7109C154.15 72.4919 153.723 71.5519 152.868 70.8911C152.014 70.2189 150.464 69.5581 148.22 68.9087ZM172.59 80C172.408 79.6354 172.259 78.986 172.146 78.0518C170.676 79.5785 168.921 80.3418 166.882 80.3418C165.059 80.3418 163.561 79.8291 162.387 78.8037C161.225 77.7669 160.644 76.4567 160.644 74.873C160.644 72.9476 161.373 71.4551 162.832 70.3955C164.301 69.3245 166.363 68.7891 169.018 68.7891H172.094V67.3364C172.094 66.2313 171.764 65.354 171.103 64.7046C170.442 64.0438 169.468 63.7134 168.181 63.7134C167.053 63.7134 166.107 63.9982 165.344 64.5679C164.58 65.1375 164.199 65.8268 164.199 66.6357H161.02C161.02 65.7129 161.345 64.8242 161.994 63.9697C162.655 63.1038 163.544 62.4202 164.66 61.9189C165.788 61.4176 167.024 61.167 168.369 61.167C170.499 61.167 172.168 61.7025 173.376 62.7734C174.584 63.833 175.21 65.297 175.256 67.1655V75.6763C175.256 77.3739 175.472 78.724 175.905 79.7266V80H172.59ZM167.343 77.5903C168.334 77.5903 169.274 77.334 170.163 76.8213C171.052 76.3086 171.695 75.6421 172.094 74.8218V71.0278H169.616C165.743 71.0278 163.806 72.1615 163.806 74.4287C163.806 75.4199 164.136 76.1947 164.797 76.7529C165.458 77.3112 166.306 77.5903 167.343 77.5903ZM183.186 61.5088L183.271 63.5596C184.627 61.9645 186.455 61.167 188.757 61.167C191.343 61.167 193.103 62.1582 194.038 64.1406C194.653 63.252 195.45 62.5342 196.43 61.9873C197.421 61.4404 198.589 61.167 199.934 61.167C203.99 61.167 206.052 63.3146 206.12 67.6099V80H202.958V67.7979C202.958 66.4762 202.657 65.4907 202.053 64.8413C201.449 64.1805 200.435 63.8501 199.011 63.8501C197.837 63.8501 196.863 64.2033 196.088 64.9097C195.314 65.6047 194.864 66.5446 194.738 67.7295V80H191.56V67.8833C191.56 65.1945 190.244 63.8501 187.612 63.8501C185.538 63.8501 184.12 64.7331 183.356 66.499V80H180.195V61.5088H183.186ZM226.525 70.9595C226.525 73.7736 225.882 76.0409 224.594 77.7612C223.307 79.4816 221.564 80.3418 219.365 80.3418C217.12 80.3418 215.354 79.6297 214.067 78.2056V87.1094H210.905V61.5088H213.793L213.947 63.5596C215.235 61.9645 217.023 61.167 219.313 61.167C221.535 61.167 223.29 62.0044 224.577 63.6792C225.876 65.354 226.525 67.6839 226.525 70.6689V70.9595ZM223.364 70.6006C223.364 68.5156 222.919 66.8693 222.031 65.6616C221.142 64.4539 219.923 63.8501 218.374 63.8501C216.459 63.8501 215.024 64.6989 214.067 66.3965V75.2319C215.013 76.9181 216.459 77.7612 218.408 77.7612C219.923 77.7612 221.125 77.1631 222.014 75.9668C222.914 74.7591 223.364 72.9704 223.364 70.6006ZM233.994 80H230.832V53.75H233.994V80ZM246.743 80.3418C244.236 80.3418 242.197 79.5215 240.625 77.8809C239.052 76.2288 238.266 74.0243 238.266 71.2671V70.686C238.266 68.8517 238.614 67.2168 239.309 65.7812C240.015 64.3343 240.995 63.2064 242.248 62.3975C243.513 61.5771 244.88 61.167 246.35 61.167C248.754 61.167 250.622 61.9588 251.955 63.5425C253.288 65.1261 253.955 67.3934 253.955 70.3442V71.6602H241.428C241.473 73.4831 242.003 74.9585 243.017 76.0864C244.042 77.203 245.341 77.7612 246.914 77.7612C248.03 77.7612 248.976 77.5334 249.75 77.0776C250.525 76.6219 251.203 76.0181 251.784 75.2661L253.715 76.77C252.166 79.1512 249.842 80.3418 246.743 80.3418ZM246.35 63.7646C245.074 63.7646 244.003 64.2318 243.137 65.166C242.271 66.0889 241.735 67.3877 241.53 69.0625H250.793V68.8232C250.702 67.2168 250.269 65.9749 249.494 65.0977C248.719 64.209 247.671 63.7646 246.35 63.7646Z" fill="#3167EB"/>
<path d="M148.22 68.9087C145.406 68.0998 143.355 67.1086 142.067 65.9351C140.791 64.7502 140.153 63.2918 140.153 61.5601C140.153 59.6004 140.934 57.9826 142.495 56.7065C144.067 55.4191 146.106 54.7754 148.613 54.7754C150.322 54.7754 151.843 55.1058 153.176 55.7666C154.52 56.4274 155.557 57.3389 156.286 58.501C157.027 59.6631 157.397 60.9334 157.397 62.312H154.099C154.099 60.8081 153.62 59.6289 152.663 58.7744C151.706 57.9085 150.356 57.4756 148.613 57.4756C146.995 57.4756 145.73 57.8345 144.819 58.5522C143.919 59.2586 143.469 60.2441 143.469 61.5088C143.469 62.5228 143.896 63.383 144.75 64.0894C145.616 64.7843 147.08 65.4224 149.143 66.0034C151.216 66.5845 152.834 67.2282 153.996 67.9346C155.17 68.6296 156.035 69.4442 156.594 70.3784C157.163 71.3127 157.448 72.4121 157.448 73.6768C157.448 75.6934 156.662 77.3112 155.09 78.5303C153.518 79.738 151.416 80.3418 148.784 80.3418C147.075 80.3418 145.48 80.0171 143.999 79.3677C142.517 78.7069 141.372 77.8068 140.563 76.6675C139.766 75.5282 139.367 74.235 139.367 72.7881H142.666C142.666 74.292 143.218 75.4826 144.323 76.3599C145.44 77.2257 146.927 77.6587 148.784 77.6587C150.515 77.6587 151.843 77.3055 152.766 76.5991C153.688 75.8927 154.15 74.93 154.15 73.7109C154.15 72.4919 153.723 71.5519 152.868 70.8911C152.014 70.2189 150.464 69.5581 148.22 68.9087ZM172.59 80C172.408 79.6354 172.259 78.986 172.146 78.0518C170.676 79.5785 168.921 80.3418 166.882 80.3418C165.059 80.3418 163.561 79.8291 162.387 78.8037C161.225 77.7669 160.644 76.4567 160.644 74.873C160.644 72.9476 161.373 71.4551 162.832 70.3955C164.301 69.3245 166.363 68.7891 169.018 68.7891H172.094V67.3364C172.094 66.2313 171.764 65.354 171.103 64.7046C170.442 64.0438 169.468 63.7134 168.181 63.7134C167.053 63.7134 166.107 63.9982 165.344 64.5679C164.58 65.1375 164.199 65.8268 164.199 66.6357H161.02C161.02 65.7129 161.345 64.8242 161.994 63.9697C162.655 63.1038 163.544 62.4202 164.66 61.9189C165.788 61.4176 167.024 61.167 168.369 61.167C170.499 61.167 172.168 61.7025 173.376 62.7734C174.584 63.833 175.21 65.297 175.256 67.1655V75.6763C175.256 77.3739 175.472 78.724 175.905 79.7266V80H172.59ZM167.343 77.5903C168.334 77.5903 169.274 77.334 170.163 76.8213C171.052 76.3086 171.695 75.6421 172.094 74.8218V71.0278H169.616C165.743 71.0278 163.806 72.1615 163.806 74.4287C163.806 75.4199 164.136 76.1947 164.797 76.7529C165.458 77.3112 166.306 77.5903 167.343 77.5903ZM183.186 61.5088L183.271 63.5596C184.627 61.9645 186.455 61.167 188.757 61.167C191.343 61.167 193.103 62.1582 194.038 64.1406C194.653 63.252 195.45 62.5342 196.43 61.9873C197.421 61.4404 198.589 61.167 199.934 61.167C203.99 61.167 206.052 63.3146 206.12 67.6099V80H202.958V67.7979C202.958 66.4762 202.657 65.4907 202.053 64.8413C201.449 64.1805 200.435 63.8501 199.011 63.8501C197.837 63.8501 196.863 64.2033 196.088 64.9097C195.314 65.6047 194.864 66.5446 194.738 67.7295V80H191.56V67.8833C191.56 65.1945 190.244 63.8501 187.612 63.8501C185.538 63.8501 184.12 64.7331 183.356 66.499V80H180.195V61.5088H183.186ZM226.525 70.9595C226.525 73.7736 225.882 76.0409 224.594 77.7612C223.307 79.4816 221.564 80.3418 219.365 80.3418C217.12 80.3418 215.354 79.6297 214.067 78.2056V87.1094H210.905V61.5088H213.793L213.947 63.5596C215.235 61.9645 217.023 61.167 219.313 61.167C221.535 61.167 223.29 62.0044 224.577 63.6792C225.876 65.354 226.525 67.6839 226.525 70.6689V70.9595ZM223.364 70.6006C223.364 68.5156 222.919 66.8693 222.031 65.6616C221.142 64.4539 219.923 63.8501 218.374 63.8501C216.459 63.8501 215.024 64.6989 214.067 66.3965V75.2319C215.013 76.9181 216.459 77.7612 218.408 77.7612C219.923 77.7612 221.125 77.1631 222.014 75.9668C222.914 74.7591 223.364 72.9704 223.364 70.6006ZM233.994 80H230.832V53.75H233.994V80ZM246.743 80.3418C244.236 80.3418 242.197 79.5215 240.625 77.8809C239.052 76.2288 238.266 74.0243 238.266 71.2671V70.686C238.266 68.8517 238.614 67.2168 239.309 65.7812C240.015 64.3343 240.995 63.2064 242.248 62.3975C243.513 61.5771 244.88 61.167 246.35 61.167C248.754 61.167 250.622 61.9588 251.955 63.5425C253.288 65.1261 253.955 67.3934 253.955 70.3442V71.6602H241.428C241.473 73.4831 242.003 74.9585 243.017 76.0864C244.042 77.203 245.341 77.7612 246.914 77.7612C248.03 77.7612 248.976 77.5334 249.75 77.0776C250.525 76.6219 251.203 76.0181 251.784 75.2661L253.715 76.77C252.166 79.1512 249.842 80.3418 246.743 80.3418ZM246.35 63.7646C245.074 63.7646 244.003 64.2318 243.137 65.166C242.271 66.0889 241.735 67.3877 241.53 69.0625H250.793V68.8232C250.702 67.2168 250.269 65.9749 249.494 65.0977C248.719 64.209 247.671 63.7646 246.35 63.7646Z" fill="url(#paint1_linear)"/>
</g>
<rect width="150" height="0.3151" transform="translate(122 41)" fill="#90F2FF" fill-opacity="0.5"/>
<defs>
<filter id="filter0_df" x="0.333984" y="0.769501" width="122.863" height="99.0826" filterUnits="userSpaceOnUse" color-interpolation-filters="sRGB">
<feFlood flood-opacity="0" result="BackgroundImageFix"/>
<feColorMatrix in="SourceAlpha" type="matrix" values="0 0 0 0 0 0 0 0 0 0 0 0 0 0 0 0 0 0 127 0"/>
<feOffset dy="4"/>
<feGaussianBlur stdDeviation="2"/>
<feColorMatrix type="matrix" values="0 0 0 0 0 0 0 0 0 0 0 0 0 0 0 0 0 0 0.25 0"/>
<feBlend mode="normal" in2="BackgroundImageFix" result="effect1_dropShadow"/>
<feBlend mode="normal" in="SourceGraphic" in2="effect1_dropShadow" result="shape"/>
<feGaussianBlur stdDeviation="2" result="effect2_foregroundBlur"/>
</filter>
<filter id="filter1_i" x="35.333" y="42.8652" width="54.7764" height="19.3398" filterUnits="userSpaceOnUse" color-interpolation-filters="sRGB">
<feFlood flood-opacity="0" result="BackgroundImageFix"/>
<feBlend mode="normal" in="SourceGraphic" in2="BackgroundImageFix" result="shape"/>
<feColorMatrix in="SourceAlpha" type="matrix" values="0 0 0 0 0 0 0 0 0 0 0 0 0 0 0 0 0 0 127 0" result="hardAlpha"/>
<feOffset dy="4"/>
<feGaussianBlur stdDeviation="2"/>
<feComposite in2="hardAlpha" operator="arithmetic" k2="-1" k3="1"/>
<feColorMatrix type="matrix" values="0 0 0 0 0 0 0 0 0 0 0 0 0 0 0 0 0 0 0.25 0"/>
<feBlend mode="normal" in2="shape" result="effect1_innerShadow"/>
</filter>
<filter id="filter2_b" x="119.445" y="19.5859" width="154.084" height="26.6816" filterUnits="userSpaceOnUse" color-interpolation-filters="sRGB">
<feFlood flood-opacity="0" result="BackgroundImageFix"/>
<feGaussianBlur in="BackgroundImage" stdDeviation="2"/>
<feComposite in2="SourceAlpha" operator="in" result="effect1_backgroundBlur"/>
<feBlend mode="normal" in="SourceGraphic" in2="effect1_backgroundBlur" result="shape"/>
</filter>
<filter id="filter3_d" x="135.367" y="53.75" width="122.587" height="41.3594" filterUnits="userSpaceOnUse" color-interpolation-filters="sRGB">
<feFlood flood-opacity="0" result="BackgroundImageFix"/>
<feColorMatrix in="SourceAlpha" type="matrix" values="0 0 0 0 0 0 0 0 0 0 0 0 0 0 0 0 0 0 127 0"/>
<feOffset dy="4"/>
<feGaussianBlur stdDeviation="2"/>
<feColorMatrix type="matrix" values="0 0 0 0 0 0 0 0 0 0 0 0 0 0 0 0 0 0 0.25 0"/>
<feBlend mode="normal" in2="BackgroundImageFix" result="effect1_dropShadow"/>
<feBlend mode="normal" in="SourceGraphic" in2="effect1_dropShadow" result="shape"/>
</filter>
<linearGradient id="paint0_linear" x1="197" y1="20" x2="197" y2="41" gradientUnits="userSpaceOnUse">
<stop stop-color="#999999"/>
<stop offset="1" stop-color="white" stop-opacity="0"/>
</linearGradient>
<linearGradient id="paint1_linear" x1="197.5" y1="48" x2="197.5" y2="87" gradientUnits="userSpaceOnUse">
<stop offset="0.254579" stop-color="#22A0D1" stop-opacity="0.46"/>
<stop offset="1" stop-color="white" stop-opacity="0"/>
</linearGradient>
</defs>
</svg>
