<svg width="166" height="53" viewBox="0 0 166 53" fill="none" xmlns="http://www.w3.org/2000/svg">
<rect x="0.00506592" y="25" width="35.3553" height="35.3553" transform="rotate(-45 0.00506592 25)" fill="#2EB7ED"/>
<path d="M14.0361 21.8906L16.3604 27.6914L18.6846 21.8906H19.9004V29H18.9629V26.2314L19.0508 23.2432L16.7168 29H15.999L13.6699 23.2578L13.7627 26.2314V29H12.8252V21.8906H14.0361ZM25.5742 25.7139H22.4932V28.2334H26.0723V29H21.5557V21.8906H26.0234V22.6621H22.4932V24.9473H25.5742V25.7139ZM32.4688 26.7441C32.3809 27.4961 32.1025 28.0771 31.6338 28.4873C31.1683 28.8942 30.5482 29.0977 29.7734 29.0977C28.9336 29.0977 28.2598 28.7965 27.752 28.1943C27.2474 27.5921 26.9951 26.7865 26.9951 25.7773V25.0938C26.9951 24.4329 27.1123 23.8519 27.3467 23.3506C27.5843 22.8493 27.9196 22.4652 28.3525 22.1982C28.7855 21.9281 29.2868 21.793 29.8564 21.793C30.6117 21.793 31.2171 22.0046 31.6729 22.4277C32.1286 22.8477 32.3939 23.4303 32.4688 24.1758H31.5264C31.445 23.6094 31.2676 23.1992 30.9941 22.9453C30.724 22.6914 30.3447 22.5645 29.8564 22.5645C29.2575 22.5645 28.7871 22.7858 28.4453 23.2285C28.1068 23.6712 27.9375 24.3011 27.9375 25.1182V25.8066C27.9375 26.5781 28.0986 27.1917 28.4209 27.6475C28.7432 28.1032 29.194 28.3311 29.7734 28.3311C30.2943 28.3311 30.693 28.2139 30.9697 27.9795C31.2497 27.7419 31.4352 27.3301 31.5264 26.7441H32.4688ZM35.8477 25.8311C35.0436 25.5999 34.4577 25.3167 34.0898 24.9814C33.7253 24.6429 33.543 24.2262 33.543 23.7314C33.543 23.1715 33.766 22.7093 34.2119 22.3447C34.6611 21.9769 35.2438 21.793 35.96 21.793C36.4482 21.793 36.8828 21.8874 37.2637 22.0762C37.6478 22.265 37.944 22.5254 38.1523 22.8574C38.3639 23.1895 38.4697 23.5524 38.4697 23.9463H37.5273C37.5273 23.5166 37.3906 23.1797 37.1172 22.9355C36.8438 22.6882 36.458 22.5645 35.96 22.5645C35.4977 22.5645 35.1364 22.667 34.876 22.8721C34.6188 23.0739 34.4902 23.3555 34.4902 23.7168C34.4902 24.0065 34.6123 24.2523 34.8564 24.4541C35.1038 24.6527 35.5221 24.835 36.1113 25.001C36.7038 25.167 37.166 25.3509 37.498 25.5527C37.8333 25.7513 38.0807 25.984 38.2402 26.251C38.403 26.5179 38.4844 26.832 38.4844 27.1934C38.4844 27.7695 38.2598 28.2318 37.8105 28.5801C37.3613 28.9251 36.7607 29.0977 36.0088 29.0977C35.5205 29.0977 35.0648 29.0049 34.6416 28.8193C34.2184 28.6305 33.8913 28.3734 33.6602 28.0479C33.4323 27.7223 33.3184 27.3529 33.3184 26.9395H34.2607C34.2607 27.3691 34.4186 27.7093 34.7344 27.96C35.0534 28.2074 35.4782 28.3311 36.0088 28.3311C36.5036 28.3311 36.8828 28.2301 37.1465 28.0283C37.4102 27.8265 37.542 27.5514 37.542 27.2031C37.542 26.8548 37.4199 26.5863 37.1758 26.3975C36.9316 26.2054 36.4889 26.0166 35.8477 25.8311Z" fill="#C4C4C4"/>
<g filter="url(#filter0_b)">
<path d="M62.3242 10.8906L64.375 16.3398L66.4209 10.8906H68.0176V18H66.7871V15.6562L66.9092 12.5215L64.8096 18H63.9258L61.8311 12.5264L61.9531 15.6562V18H60.7227V10.8906H62.3242ZM71.2158 16.3008L72.29 12.7168H73.5547L71.4551 18.8008C71.1328 19.6895 70.5859 20.1338 69.8145 20.1338C69.6419 20.1338 69.4515 20.1045 69.2432 20.0459V19.1279L69.4678 19.1426C69.7673 19.1426 69.9919 19.0872 70.1416 18.9766C70.2946 18.8691 70.415 18.6868 70.5029 18.4297L70.6738 17.9756L68.8184 12.7168H70.0977L71.2158 16.3008ZM81.001 14.8262H78.0811V17.0137H81.4941V18H76.8457V10.8906H81.46V11.8867H78.0811V13.8496H81.001V14.8262ZM84.6875 15.4561H82.124V14.499H84.6875V15.4561ZM91.2061 15.6855C91.1344 16.444 90.8545 17.0365 90.3662 17.4629C89.8779 17.8861 89.2285 18.0977 88.418 18.0977C87.8516 18.0977 87.3519 17.9642 86.9189 17.6973C86.4893 17.4271 86.1572 17.0446 85.9229 16.5498C85.6885 16.055 85.5664 15.4805 85.5566 14.8262V14.1621C85.5566 13.4915 85.6755 12.9007 85.9131 12.3896C86.1507 11.8786 86.4909 11.4847 86.9336 11.208C87.3796 10.9313 87.8939 10.793 88.4766 10.793C89.2611 10.793 89.8926 11.0062 90.3711 11.4326C90.8496 11.859 91.1279 12.4613 91.2061 13.2393H89.9756C89.917 12.7282 89.7673 12.3604 89.5264 12.1357C89.2887 11.9079 88.9388 11.7939 88.4766 11.7939C87.9395 11.7939 87.526 11.9909 87.2363 12.3848C86.9499 12.7754 86.8034 13.3499 86.7969 14.1084V14.7383C86.7969 15.5065 86.9336 16.0924 87.207 16.4961C87.4837 16.8997 87.8874 17.1016 88.418 17.1016C88.903 17.1016 89.2676 16.9925 89.5117 16.7744C89.7559 16.5563 89.9105 16.1934 89.9756 15.6855H91.2061ZM91.9775 15.3096C91.9775 14.792 92.0801 14.3265 92.2852 13.9131C92.4902 13.4964 92.7783 13.1774 93.1494 12.9561C93.5205 12.7314 93.9469 12.6191 94.4287 12.6191C95.1416 12.6191 95.7194 12.8486 96.1621 13.3076C96.6081 13.7666 96.849 14.3753 96.8848 15.1338L96.8896 15.4121C96.8896 15.9329 96.7887 16.3984 96.5869 16.8086C96.3883 17.2188 96.1019 17.5361 95.7275 17.7607C95.3564 17.9854 94.9268 18.0977 94.4385 18.0977C93.693 18.0977 93.0957 17.8503 92.6465 17.3555C92.2005 16.8574 91.9775 16.195 91.9775 15.3682V15.3096ZM93.1641 15.4121C93.1641 15.9557 93.2764 16.3822 93.501 16.6914C93.7256 16.9974 94.0381 17.1504 94.4385 17.1504C94.8389 17.1504 95.1497 16.9941 95.3711 16.6816C95.5957 16.3691 95.708 15.9118 95.708 15.3096C95.708 14.7757 95.5924 14.3525 95.3613 14.04C95.1335 13.7275 94.8226 13.5713 94.4287 13.5713C94.0413 13.5713 93.7337 13.7259 93.5059 14.0352C93.278 14.3411 93.1641 14.8001 93.1641 15.4121ZM99.0088 12.7168L99.043 13.2686C99.4141 12.8356 99.9219 12.6191 100.566 12.6191C101.273 12.6191 101.756 12.8893 102.017 13.4297C102.401 12.8893 102.941 12.6191 103.638 12.6191C104.22 12.6191 104.653 12.7803 104.937 13.1025C105.223 13.4248 105.369 13.9001 105.376 14.5283V18H104.189V14.5625C104.189 14.2272 104.116 13.9814 103.97 13.8252C103.823 13.6689 103.581 13.5908 103.242 13.5908C102.972 13.5908 102.751 13.6641 102.578 13.8105C102.409 13.9538 102.29 14.1426 102.222 14.377L102.227 18H101.04V14.5234C101.024 13.9017 100.706 13.5908 100.088 13.5908C99.6126 13.5908 99.2757 13.7845 99.0771 14.1719V18H97.8906V12.7168H99.0088ZM107.71 12.7168L107.744 13.2686C108.115 12.8356 108.623 12.6191 109.268 12.6191C109.974 12.6191 110.457 12.8893 110.718 13.4297C111.102 12.8893 111.642 12.6191 112.339 12.6191C112.922 12.6191 113.354 12.7803 113.638 13.1025C113.924 13.4248 114.071 13.9001 114.077 14.5283V18H112.891V14.5625C112.891 14.2272 112.817 13.9814 112.671 13.8252C112.524 13.6689 112.282 13.5908 111.943 13.5908C111.673 13.5908 111.452 13.6641 111.279 13.8105C111.11 13.9538 110.991 14.1426 110.923 14.377L110.928 18H109.741V14.5234C109.725 13.9017 109.408 13.5908 108.789 13.5908C108.314 13.5908 107.977 13.7845 107.778 14.1719V18H106.592V12.7168H107.71ZM117.622 18.0977C116.87 18.0977 116.26 17.8617 115.791 17.3896C115.326 16.9144 115.093 16.2829 115.093 15.4951V15.3486C115.093 14.8213 115.194 14.3509 115.396 13.9375C115.601 13.5208 115.887 13.1969 116.255 12.9658C116.623 12.7347 117.033 12.6191 117.485 12.6191C118.205 12.6191 118.76 12.8486 119.15 13.3076C119.544 13.7666 119.741 14.416 119.741 15.2559V15.7344H116.289C116.325 16.1706 116.47 16.5156 116.724 16.7695C116.981 17.0234 117.303 17.1504 117.69 17.1504C118.234 17.1504 118.677 16.9307 119.019 16.4912L119.658 17.1016C119.447 17.4173 119.163 17.6631 118.809 17.8389C118.457 18.0114 118.062 18.0977 117.622 18.0977ZM117.48 13.5713C117.155 13.5713 116.891 13.6852 116.689 13.9131C116.491 14.141 116.364 14.4583 116.309 14.8652H118.569V14.7773C118.543 14.3802 118.438 14.0807 118.252 13.8789C118.066 13.6738 117.809 13.5713 117.48 13.5713ZM123.433 13.8008C123.276 13.7747 123.115 13.7617 122.949 13.7617C122.406 13.7617 122.039 13.9701 121.851 14.3867V18H120.664V12.7168H121.797L121.826 13.3076C122.113 12.8486 122.51 12.6191 123.018 12.6191C123.187 12.6191 123.327 12.6419 123.438 12.6875L123.433 13.8008ZM126.255 17.1504C126.551 17.1504 126.797 17.0641 126.992 16.8916C127.188 16.7191 127.292 16.5059 127.305 16.252H128.423C128.41 16.5807 128.307 16.8883 128.115 17.1748C127.923 17.458 127.663 17.6826 127.334 17.8486C127.005 18.0146 126.65 18.0977 126.27 18.0977C125.531 18.0977 124.945 17.8584 124.512 17.3799C124.079 16.9014 123.862 16.2406 123.862 15.3975V15.2754C123.862 14.4714 124.077 13.8285 124.507 13.3467C124.937 12.8617 125.522 12.6191 126.265 12.6191C126.893 12.6191 127.404 12.8031 127.798 13.1709C128.195 13.5355 128.403 14.0156 128.423 14.6113H127.305C127.292 14.3086 127.188 14.0596 126.992 13.8643C126.8 13.6689 126.554 13.5713 126.255 13.5713C125.871 13.5713 125.575 13.7113 125.366 13.9912C125.158 14.2679 125.052 14.6895 125.049 15.2559V15.4463C125.049 16.0192 125.151 16.4473 125.356 16.7305C125.565 17.0104 125.864 17.1504 126.255 17.1504ZM131.646 18.0977C130.894 18.0977 130.283 17.8617 129.814 17.3896C129.349 16.9144 129.116 16.2829 129.116 15.4951V15.3486C129.116 14.8213 129.217 14.3509 129.419 13.9375C129.624 13.5208 129.91 13.1969 130.278 12.9658C130.646 12.7347 131.056 12.6191 131.509 12.6191C132.228 12.6191 132.783 12.8486 133.174 13.3076C133.568 13.7666 133.765 14.416 133.765 15.2559V15.7344H130.312C130.348 16.1706 130.493 16.5156 130.747 16.7695C131.004 17.0234 131.326 17.1504 131.714 17.1504C132.257 17.1504 132.7 16.9307 133.042 16.4912L133.682 17.1016C133.47 17.4173 133.187 17.6631 132.832 17.8389C132.48 18.0114 132.085 18.0977 131.646 18.0977ZM131.504 13.5713C131.178 13.5713 130.915 13.6852 130.713 13.9131C130.514 14.141 130.387 14.4583 130.332 14.8652H132.593V14.7773C132.567 14.3802 132.461 14.0807 132.275 13.8789C132.09 13.6738 131.833 13.5713 131.504 13.5713Z" fill="#C4C4C4"/>
<path d="M62.3242 10.8906L64.375 16.3398L66.4209 10.8906H68.0176V18H66.7871V15.6562L66.9092 12.5215L64.8096 18H63.9258L61.8311 12.5264L61.9531 15.6562V18H60.7227V10.8906H62.3242ZM71.2158 16.3008L72.29 12.7168H73.5547L71.4551 18.8008C71.1328 19.6895 70.5859 20.1338 69.8145 20.1338C69.6419 20.1338 69.4515 20.1045 69.2432 20.0459V19.1279L69.4678 19.1426C69.7673 19.1426 69.9919 19.0872 70.1416 18.9766C70.2946 18.8691 70.415 18.6868 70.5029 18.4297L70.6738 17.9756L68.8184 12.7168H70.0977L71.2158 16.3008ZM81.001 14.8262H78.0811V17.0137H81.4941V18H76.8457V10.8906H81.46V11.8867H78.0811V13.8496H81.001V14.8262ZM84.6875 15.4561H82.124V14.499H84.6875V15.4561ZM91.2061 15.6855C91.1344 16.444 90.8545 17.0365 90.3662 17.4629C89.8779 17.8861 89.2285 18.0977 88.418 18.0977C87.8516 18.0977 87.3519 17.9642 86.9189 17.6973C86.4893 17.4271 86.1572 17.0446 85.9229 16.5498C85.6885 16.055 85.5664 15.4805 85.5566 14.8262V14.1621C85.5566 13.4915 85.6755 12.9007 85.9131 12.3896C86.1507 11.8786 86.4909 11.4847 86.9336 11.208C87.3796 10.9313 87.8939 10.793 88.4766 10.793C89.2611 10.793 89.8926 11.0062 90.3711 11.4326C90.8496 11.859 91.1279 12.4613 91.2061 13.2393H89.9756C89.917 12.7282 89.7673 12.3604 89.5264 12.1357C89.2887 11.9079 88.9388 11.7939 88.4766 11.7939C87.9395 11.7939 87.526 11.9909 87.2363 12.3848C86.9499 12.7754 86.8034 13.3499 86.7969 14.1084V14.7383C86.7969 15.5065 86.9336 16.0924 87.207 16.4961C87.4837 16.8997 87.8874 17.1016 88.418 17.1016C88.903 17.1016 89.2676 16.9925 89.5117 16.7744C89.7559 16.5563 89.9105 16.1934 89.9756 15.6855H91.2061ZM91.9775 15.3096C91.9775 14.792 92.0801 14.3265 92.2852 13.9131C92.4902 13.4964 92.7783 13.1774 93.1494 12.9561C93.5205 12.7314 93.9469 12.6191 94.4287 12.6191C95.1416 12.6191 95.7194 12.8486 96.1621 13.3076C96.6081 13.7666 96.849 14.3753 96.8848 15.1338L96.8896 15.4121C96.8896 15.9329 96.7887 16.3984 96.5869 16.8086C96.3883 17.2188 96.1019 17.5361 95.7275 17.7607C95.3564 17.9854 94.9268 18.0977 94.4385 18.0977C93.693 18.0977 93.0957 17.8503 92.6465 17.3555C92.2005 16.8574 91.9775 16.195 91.9775 15.3682V15.3096ZM93.1641 15.4121C93.1641 15.9557 93.2764 16.3822 93.501 16.6914C93.7256 16.9974 94.0381 17.1504 94.4385 17.1504C94.8389 17.1504 95.1497 16.9941 95.3711 16.6816C95.5957 16.3691 95.708 15.9118 95.708 15.3096C95.708 14.7757 95.5924 14.3525 95.3613 14.04C95.1335 13.7275 94.8226 13.5713 94.4287 13.5713C94.0413 13.5713 93.7337 13.7259 93.5059 14.0352C93.278 14.3411 93.1641 14.8001 93.1641 15.4121ZM99.0088 12.7168L99.043 13.2686C99.4141 12.8356 99.9219 12.6191 100.566 12.6191C101.273 12.6191 101.756 12.8893 102.017 13.4297C102.401 12.8893 102.941 12.6191 103.638 12.6191C104.22 12.6191 104.653 12.7803 104.937 13.1025C105.223 13.4248 105.369 13.9001 105.376 14.5283V18H104.189V14.5625C104.189 14.2272 104.116 13.9814 103.97 13.8252C103.823 13.6689 103.581 13.5908 103.242 13.5908C102.972 13.5908 102.751 13.6641 102.578 13.8105C102.409 13.9538 102.29 14.1426 102.222 14.377L102.227 18H101.04V14.5234C101.024 13.9017 100.706 13.5908 100.088 13.5908C99.6126 13.5908 99.2757 13.7845 99.0771 14.1719V18H97.8906V12.7168H99.0088ZM107.71 12.7168L107.744 13.2686C108.115 12.8356 108.623 12.6191 109.268 12.6191C109.974 12.6191 110.457 12.8893 110.718 13.4297C111.102 12.8893 111.642 12.6191 112.339 12.6191C112.922 12.6191 113.354 12.7803 113.638 13.1025C113.924 13.4248 114.071 13.9001 114.077 14.5283V18H112.891V14.5625C112.891 14.2272 112.817 13.9814 112.671 13.8252C112.524 13.6689 112.282 13.5908 111.943 13.5908C111.673 13.5908 111.452 13.6641 111.279 13.8105C111.11 13.9538 110.991 14.1426 110.923 14.377L110.928 18H109.741V14.5234C109.725 13.9017 109.408 13.5908 108.789 13.5908C108.314 13.5908 107.977 13.7845 107.778 14.1719V18H106.592V12.7168H107.71ZM117.622 18.0977C116.87 18.0977 116.26 17.8617 115.791 17.3896C115.326 16.9144 115.093 16.2829 115.093 15.4951V15.3486C115.093 14.8213 115.194 14.3509 115.396 13.9375C115.601 13.5208 115.887 13.1969 116.255 12.9658C116.623 12.7347 117.033 12.6191 117.485 12.6191C118.205 12.6191 118.76 12.8486 119.15 13.3076C119.544 13.7666 119.741 14.416 119.741 15.2559V15.7344H116.289C116.325 16.1706 116.47 16.5156 116.724 16.7695C116.981 17.0234 117.303 17.1504 117.69 17.1504C118.234 17.1504 118.677 16.9307 119.019 16.4912L119.658 17.1016C119.447 17.4173 119.163 17.6631 118.809 17.8389C118.457 18.0114 118.062 18.0977 117.622 18.0977ZM117.48 13.5713C117.155 13.5713 116.891 13.6852 116.689 13.9131C116.491 14.141 116.364 14.4583 116.309 14.8652H118.569V14.7773C118.543 14.3802 118.438 14.0807 118.252 13.8789C118.066 13.6738 117.809 13.5713 117.48 13.5713ZM123.433 13.8008C123.276 13.7747 123.115 13.7617 122.949 13.7617C122.406 13.7617 122.039 13.9701 121.851 14.3867V18H120.664V12.7168H121.797L121.826 13.3076C122.113 12.8486 122.51 12.6191 123.018 12.6191C123.187 12.6191 123.327 12.6419 123.438 12.6875L123.433 13.8008ZM126.255 17.1504C126.551 17.1504 126.797 17.0641 126.992 16.8916C127.188 16.7191 127.292 16.5059 127.305 16.252H128.423C128.41 16.5807 128.307 16.8883 128.115 17.1748C127.923 17.458 127.663 17.6826 127.334 17.8486C127.005 18.0146 126.65 18.0977 126.27 18.0977C125.531 18.0977 124.945 17.8584 124.512 17.3799C124.079 16.9014 123.862 16.2406 123.862 15.3975V15.2754C123.862 14.4714 124.077 13.8285 124.507 13.3467C124.937 12.8617 125.522 12.6191 126.265 12.6191C126.893 12.6191 127.404 12.8031 127.798 13.1709C128.195 13.5355 128.403 14.0156 128.423 14.6113H127.305C127.292 14.3086 127.188 14.0596 126.992 13.8643C126.8 13.6689 126.554 13.5713 126.255 13.5713C125.871 13.5713 125.575 13.7113 125.366 13.9912C125.158 14.2679 125.052 14.6895 125.049 15.2559V15.4463C125.049 16.0192 125.151 16.4473 125.356 16.7305C125.565 17.0104 125.864 17.1504 126.255 17.1504ZM131.646 18.0977C130.894 18.0977 130.283 17.8617 129.814 17.3896C129.349 16.9144 129.116 16.2829 129.116 15.4951V15.3486C129.116 14.8213 129.217 14.3509 129.419 13.9375C129.624 13.5208 129.91 13.1969 130.278 12.9658C130.646 12.7347 131.056 12.6191 131.509 12.6191C132.228 12.6191 132.783 12.8486 133.174 13.3076C133.568 13.7666 133.765 14.416 133.765 15.2559V15.7344H130.312C130.348 16.1706 130.493 16.5156 130.747 16.7695C131.004 17.0234 131.326 17.1504 131.714 17.1504C132.257 17.1504 132.7 16.9307 133.042 16.4912L133.682 17.1016C133.47 17.4173 133.187 17.6631 132.832 17.8389C132.48 18.0114 132.085 18.0977 131.646 18.0977ZM131.504 13.5713C131.178 13.5713 130.915 13.6852 130.713 13.9131C130.514 14.141 130.387 14.4583 130.332 14.8652H132.593V14.7773C132.567 14.3802 132.461 14.0807 132.275 13.8789C132.09 13.6738 131.833 13.5713 131.504 13.5713Z" fill="url(#paint0_linear)"/>
</g>
<g filter="url(#filter1_d)">
<path d="M70.8398 33.6621C69.2318 33.1999 68.0599 32.6335 67.3242 31.9629C66.5951 31.2858 66.2305 30.4525 66.2305 29.4629C66.2305 28.3431 66.6764 27.4186 67.5684 26.6895C68.4668 25.9538 69.6322 25.5859 71.0645 25.5859C72.041 25.5859 72.9102 25.7747 73.6719 26.1523C74.4401 26.5299 75.0326 27.0508 75.4492 27.7148C75.8724 28.3789 76.084 29.1048 76.084 29.8926H74.1992C74.1992 29.0332 73.9258 28.3594 73.3789 27.8711C72.832 27.3763 72.0605 27.1289 71.0645 27.1289C70.14 27.1289 69.4173 27.334 68.8965 27.7441C68.3822 28.1478 68.125 28.7109 68.125 29.4336C68.125 30.013 68.3691 30.5046 68.8574 30.9082C69.3522 31.3053 70.1888 31.6699 71.3672 32.002C72.5521 32.334 73.4766 32.7018 74.1406 33.1055C74.8112 33.5026 75.306 33.9681 75.625 34.502C75.9505 35.0358 76.1133 35.6641 76.1133 36.3867C76.1133 37.5391 75.6641 38.4635 74.7656 39.1602C73.8672 39.8503 72.666 40.1953 71.1621 40.1953C70.1855 40.1953 69.2741 40.0098 68.4277 39.6387C67.5814 39.2611 66.9271 38.7467 66.4648 38.0957C66.0091 37.4447 65.7812 36.7057 65.7812 35.8789H67.666C67.666 36.7383 67.9818 37.4186 68.6133 37.9199C69.2513 38.4147 70.1009 38.6621 71.1621 38.6621C72.1517 38.6621 72.9102 38.4603 73.4375 38.0566C73.9648 37.653 74.2285 37.1029 74.2285 36.4062C74.2285 35.7096 73.9844 35.1725 73.4961 34.7949C73.0078 34.4108 72.1224 34.0332 70.8398 33.6621ZM84.7656 40C84.6615 39.7917 84.5768 39.4206 84.5117 38.8867C83.6719 39.7591 82.6693 40.1953 81.5039 40.1953C80.4622 40.1953 79.6061 39.9023 78.9355 39.3164C78.2715 38.724 77.9395 37.9753 77.9395 37.0703C77.9395 35.9701 78.3561 35.1172 79.1895 34.5117C80.0293 33.8997 81.2077 33.5938 82.7246 33.5938H84.4824V32.7637C84.4824 32.1322 84.2936 31.6309 83.916 31.2598C83.5384 30.8822 82.9818 30.6934 82.2461 30.6934C81.6016 30.6934 81.0612 30.8561 80.625 31.1816C80.1888 31.5072 79.9707 31.901 79.9707 32.3633H78.1543C78.1543 31.8359 78.3398 31.3281 78.7109 30.8398C79.0885 30.3451 79.5964 29.9544 80.2344 29.668C80.8789 29.3815 81.5853 29.2383 82.3535 29.2383C83.571 29.2383 84.5247 29.5443 85.2148 30.1562C85.9049 30.7617 86.263 31.5983 86.2891 32.666V37.5293C86.2891 38.4993 86.4128 39.2708 86.6602 39.8438V40H84.7656ZM81.7676 38.623C82.334 38.623 82.8711 38.4766 83.3789 38.1836C83.8867 37.8906 84.2546 37.5098 84.4824 37.041V34.873H83.0664C80.8529 34.873 79.7461 35.5208 79.7461 36.8164C79.7461 37.3828 79.9349 37.8255 80.3125 38.1445C80.6901 38.4635 81.1751 38.623 81.7676 38.623ZM90.8203 29.4336L90.8691 30.6055C91.6439 29.694 92.6888 29.2383 94.0039 29.2383C95.4818 29.2383 96.4876 29.8047 97.0215 30.9375C97.373 30.4297 97.8288 30.0195 98.3887 29.707C98.9551 29.3945 99.6224 29.2383 100.391 29.2383C102.708 29.2383 103.887 30.4655 103.926 32.9199V40H102.119V33.0273C102.119 32.2721 101.947 31.709 101.602 31.3379C101.257 30.9603 100.677 30.7715 99.8633 30.7715C99.1927 30.7715 98.6361 30.9733 98.1934 31.377C97.7507 31.7741 97.4935 32.3112 97.4219 32.9883V40H95.6055V33.0762C95.6055 31.5397 94.8535 30.7715 93.3496 30.7715C92.1647 30.7715 91.3542 31.276 90.918 32.2852V40H89.1113V29.4336H90.8203ZM115.586 34.834C115.586 36.4421 115.218 37.7376 114.482 38.7207C113.747 39.7038 112.751 40.1953 111.494 40.1953C110.212 40.1953 109.202 39.7884 108.467 38.9746V44.0625H106.66V29.4336H108.311L108.398 30.6055C109.134 29.694 110.156 29.2383 111.465 29.2383C112.734 29.2383 113.737 29.7168 114.473 30.6738C115.215 31.6309 115.586 32.9622 115.586 34.668V34.834ZM113.779 34.6289C113.779 33.4375 113.525 32.4967 113.018 31.8066C112.51 31.1165 111.813 30.7715 110.928 30.7715C109.834 30.7715 109.014 31.2565 108.467 32.2266V37.2754C109.007 38.2389 109.834 38.7207 110.947 38.7207C111.813 38.7207 112.5 38.3789 113.008 37.6953C113.522 37.0052 113.779 35.9831 113.779 34.6289ZM119.854 40H118.047V25H119.854V40ZM127.139 40.1953C125.706 40.1953 124.541 39.7266 123.643 38.7891C122.744 37.8451 122.295 36.5853 122.295 35.0098V34.6777C122.295 33.6296 122.493 32.6953 122.891 31.875C123.294 31.0482 123.854 30.4036 124.57 29.9414C125.293 29.4727 126.074 29.2383 126.914 29.2383C128.288 29.2383 129.355 29.6908 130.117 30.5957C130.879 31.5007 131.26 32.7962 131.26 34.4824V35.2344H124.102C124.128 36.276 124.43 37.1191 125.01 37.7637C125.596 38.4017 126.338 38.7207 127.236 38.7207C127.874 38.7207 128.415 38.5905 128.857 38.3301C129.3 38.0697 129.688 37.7246 130.02 37.2949L131.123 38.1543C130.238 39.515 128.91 40.1953 127.139 40.1953ZM126.914 30.7227C126.185 30.7227 125.573 30.9896 125.078 31.5234C124.583 32.0508 124.277 32.793 124.16 33.75H129.453V33.6133C129.401 32.6953 129.154 31.9857 128.711 31.4844C128.268 30.9766 127.669 30.7227 126.914 30.7227Z" fill="#0BB2F3"/>
<path d="M70.8398 33.6621C69.2318 33.1999 68.0599 32.6335 67.3242 31.9629C66.5951 31.2858 66.2305 30.4525 66.2305 29.4629C66.2305 28.3431 66.6764 27.4186 67.5684 26.6895C68.4668 25.9538 69.6322 25.5859 71.0645 25.5859C72.041 25.5859 72.9102 25.7747 73.6719 26.1523C74.4401 26.5299 75.0326 27.0508 75.4492 27.7148C75.8724 28.3789 76.084 29.1048 76.084 29.8926H74.1992C74.1992 29.0332 73.9258 28.3594 73.3789 27.8711C72.832 27.3763 72.0605 27.1289 71.0645 27.1289C70.14 27.1289 69.4173 27.334 68.8965 27.7441C68.3822 28.1478 68.125 28.7109 68.125 29.4336C68.125 30.013 68.3691 30.5046 68.8574 30.9082C69.3522 31.3053 70.1888 31.6699 71.3672 32.002C72.5521 32.334 73.4766 32.7018 74.1406 33.1055C74.8112 33.5026 75.306 33.9681 75.625 34.502C75.9505 35.0358 76.1133 35.6641 76.1133 36.3867C76.1133 37.5391 75.6641 38.4635 74.7656 39.1602C73.8672 39.8503 72.666 40.1953 71.1621 40.1953C70.1855 40.1953 69.2741 40.0098 68.4277 39.6387C67.5814 39.2611 66.9271 38.7467 66.4648 38.0957C66.0091 37.4447 65.7812 36.7057 65.7812 35.8789H67.666C67.666 36.7383 67.9818 37.4186 68.6133 37.9199C69.2513 38.4147 70.1009 38.6621 71.1621 38.6621C72.1517 38.6621 72.9102 38.4603 73.4375 38.0566C73.9648 37.653 74.2285 37.1029 74.2285 36.4062C74.2285 35.7096 73.9844 35.1725 73.4961 34.7949C73.0078 34.4108 72.1224 34.0332 70.8398 33.6621ZM84.7656 40C84.6615 39.7917 84.5768 39.4206 84.5117 38.8867C83.6719 39.7591 82.6693 40.1953 81.5039 40.1953C80.4622 40.1953 79.6061 39.9023 78.9355 39.3164C78.2715 38.724 77.9395 37.9753 77.9395 37.0703C77.9395 35.9701 78.3561 35.1172 79.1895 34.5117C80.0293 33.8997 81.2077 33.5938 82.7246 33.5938H84.4824V32.7637C84.4824 32.1322 84.2936 31.6309 83.916 31.2598C83.5384 30.8822 82.9818 30.6934 82.2461 30.6934C81.6016 30.6934 81.0612 30.8561 80.625 31.1816C80.1888 31.5072 79.9707 31.901 79.9707 32.3633H78.1543C78.1543 31.8359 78.3398 31.3281 78.7109 30.8398C79.0885 30.3451 79.5964 29.9544 80.2344 29.668C80.8789 29.3815 81.5853 29.2383 82.3535 29.2383C83.571 29.2383 84.5247 29.5443 85.2148 30.1562C85.9049 30.7617 86.263 31.5983 86.2891 32.666V37.5293C86.2891 38.4993 86.4128 39.2708 86.6602 39.8438V40H84.7656ZM81.7676 38.623C82.334 38.623 82.8711 38.4766 83.3789 38.1836C83.8867 37.8906 84.2546 37.5098 84.4824 37.041V34.873H83.0664C80.8529 34.873 79.7461 35.5208 79.7461 36.8164C79.7461 37.3828 79.9349 37.8255 80.3125 38.1445C80.6901 38.4635 81.1751 38.623 81.7676 38.623ZM90.8203 29.4336L90.8691 30.6055C91.6439 29.694 92.6888 29.2383 94.0039 29.2383C95.4818 29.2383 96.4876 29.8047 97.0215 30.9375C97.373 30.4297 97.8288 30.0195 98.3887 29.707C98.9551 29.3945 99.6224 29.2383 100.391 29.2383C102.708 29.2383 103.887 30.4655 103.926 32.9199V40H102.119V33.0273C102.119 32.2721 101.947 31.709 101.602 31.3379C101.257 30.9603 100.677 30.7715 99.8633 30.7715C99.1927 30.7715 98.6361 30.9733 98.1934 31.377C97.7507 31.7741 97.4935 32.3112 97.4219 32.9883V40H95.6055V33.0762C95.6055 31.5397 94.8535 30.7715 93.3496 30.7715C92.1647 30.7715 91.3542 31.276 90.918 32.2852V40H89.1113V29.4336H90.8203ZM115.586 34.834C115.586 36.4421 115.218 37.7376 114.482 38.7207C113.747 39.7038 112.751 40.1953 111.494 40.1953C110.212 40.1953 109.202 39.7884 108.467 38.9746V44.0625H106.66V29.4336H108.311L108.398 30.6055C109.134 29.694 110.156 29.2383 111.465 29.2383C112.734 29.2383 113.737 29.7168 114.473 30.6738C115.215 31.6309 115.586 32.9622 115.586 34.668V34.834ZM113.779 34.6289C113.779 33.4375 113.525 32.4967 113.018 31.8066C112.51 31.1165 111.813 30.7715 110.928 30.7715C109.834 30.7715 109.014 31.2565 108.467 32.2266V37.2754C109.007 38.2389 109.834 38.7207 110.947 38.7207C111.813 38.7207 112.5 38.3789 113.008 37.6953C113.522 37.0052 113.779 35.9831 113.779 34.6289ZM119.854 40H118.047V25H119.854V40ZM127.139 40.1953C125.706 40.1953 124.541 39.7266 123.643 38.7891C122.744 37.8451 122.295 36.5853 122.295 35.0098V34.6777C122.295 33.6296 122.493 32.6953 122.891 31.875C123.294 31.0482 123.854 30.4036 124.57 29.9414C125.293 29.4727 126.074 29.2383 126.914 29.2383C128.288 29.2383 129.355 29.6908 130.117 30.5957C130.879 31.5007 131.26 32.7962 131.26 34.4824V35.2344H124.102C124.128 36.276 124.43 37.1191 125.01 37.7637C125.596 38.4017 126.338 38.7207 127.236 38.7207C127.874 38.7207 128.415 38.5905 128.857 38.3301C129.3 38.0697 129.688 37.7246 130.02 37.2949L131.123 38.1543C130.238 39.515 128.91 40.1953 127.139 40.1953ZM126.914 30.7227C126.185 30.7227 125.573 30.9896 125.078 31.5234C124.583 32.0508 124.277 32.793 124.16 33.75H129.453V33.6133C129.401 32.6953 129.154 31.9857 128.711 31.4844C128.268 30.9766 127.669 30.7227 126.914 30.7227Z" fill="url(#paint1_linear)"/>
</g>
<defs>
<filter id="filter0_b" x="56.7227" y="6.79297" width="81.042" height="17.3408" filterUnits="userSpaceOnUse" color-interpolation-filters="sRGB">
<feFlood flood-opacity="0" result="BackgroundImageFix"/>
<feGaussianBlur in="BackgroundImage" stdDeviation="2"/>
<feComposite in2="SourceAlpha" operator="in" result="effect1_backgroundBlur"/>
<feBlend mode="normal" in="SourceGraphic" in2="effect1_backgroundBlur" result="shape"/>
</filter>
<filter id="filter1_d" x="61.7812" y="25" width="73.4785" height="27.0625" filterUnits="userSpaceOnUse" color-interpolation-filters="sRGB">
<feFlood flood-opacity="0" result="BackgroundImageFix"/>
<feColorMatrix in="SourceAlpha" type="matrix" values="0 0 0 0 0 0 0 0 0 0 0 0 0 0 0 0 0 0 127 0"/>
<feOffset dy="4"/>
<feGaussianBlur stdDeviation="2"/>
<feColorMatrix type="matrix" values="0 0 0 0 0 0 0 0 0 0 0 0 0 0 0 0 0 0 0.25 0"/>
<feBlend mode="normal" in2="BackgroundImageFix" result="effect1_dropShadow"/>
<feBlend mode="normal" in="SourceGraphic" in2="effect1_dropShadow" result="shape"/>
</filter>
<linearGradient id="paint0_linear" x1="112.663" y1="9" x2="112.663" y2="19.6066" gradientUnits="userSpaceOnUse">
<stop stop-color="#999999"/>
<stop offset="1" stop-color="white" stop-opacity="0"/>
</linearGradient>
<linearGradient id="paint1_linear" x1="107.407" y1="22" x2="107.407" y2="40.9404" gradientUnits="userSpaceOnUse">
<stop offset="0.254579" stop-color="#22A0D1" stop-opacity="0.46"/>
<stop offset="1" stop-color="white" stop-opacity="0"/>
</linearGradient>
</defs>
</svg>
