<svg width="507" height="198" viewBox="0 0 507 198" fill="none" xmlns="http://www.w3.org/2000/svg">
<rect x="0.00506592" y="99" width="140" height="140" transform="rotate(-45 0.00506592 99)" fill="#18343F"/>
<path d="M48.1626 85.0078L58.6216 111.111L69.0806 85.0078H74.5518V117H70.333V104.542L70.7285 91.0942L60.2256 117H56.9956L46.5146 91.1602L46.9321 104.542V117H42.7134V85.0078H48.1626ZM100.084 102.212H86.2192V113.55H102.325V117H82.0005V85.0078H102.105V88.4795H86.2192V98.7627H100.084V102.212ZM131.109 106.849C130.714 110.232 129.461 112.847 127.352 114.693C125.257 116.524 122.467 117.439 118.98 117.439C115.201 117.439 112.169 116.084 109.884 113.375C107.613 110.665 106.478 107.039 106.478 102.498V99.4219C106.478 96.4482 107.005 93.8335 108.06 91.5776C109.129 89.3218 110.638 87.5933 112.586 86.3921C114.535 85.1763 116.791 84.5684 119.354 84.5684C122.752 84.5684 125.477 85.5205 127.528 87.4248C129.579 89.3145 130.772 91.9365 131.109 95.291H126.869C126.502 92.7422 125.704 90.8965 124.474 89.7539C123.258 88.6113 121.551 88.04 119.354 88.04C116.659 88.04 114.542 89.0361 113.004 91.0283C111.48 93.0205 110.719 95.855 110.719 99.5317V102.63C110.719 106.102 111.444 108.863 112.894 110.914C114.344 112.964 116.373 113.99 118.98 113.99C121.324 113.99 123.119 113.462 124.364 112.408C125.624 111.338 126.458 109.485 126.869 106.849H131.109ZM146.314 102.74C142.696 101.7 140.06 100.425 138.404 98.9165C136.764 97.3931 135.943 95.5181 135.943 93.2915C135.943 90.772 136.947 88.6919 138.954 87.0513C140.975 85.396 143.597 84.5684 146.82 84.5684C149.017 84.5684 150.973 84.9932 152.687 85.8428C154.415 86.6924 155.748 87.8643 156.686 89.3584C157.638 90.8525 158.114 92.4858 158.114 94.2583H153.873C153.873 92.3247 153.258 90.8086 152.027 89.71C150.797 88.5967 149.061 88.04 146.82 88.04C144.74 88.04 143.114 88.5015 141.942 89.4243C140.785 90.3325 140.206 91.5996 140.206 93.2256C140.206 94.5293 140.755 95.6353 141.854 96.5435C142.967 97.437 144.85 98.2573 147.501 99.0044C150.167 99.7515 152.247 100.579 153.741 101.487C155.25 102.381 156.363 103.428 157.081 104.629C157.813 105.831 158.18 107.244 158.18 108.87C158.18 111.463 157.169 113.543 155.147 115.11C153.126 116.663 150.423 117.439 147.04 117.439C144.842 117.439 142.792 117.022 140.887 116.187C138.983 115.337 137.511 114.18 136.471 112.715C135.445 111.25 134.933 109.588 134.933 107.728H139.173C139.173 109.661 139.884 111.192 141.305 112.32C142.74 113.433 144.652 113.99 147.04 113.99C149.266 113.99 150.973 113.536 152.159 112.627C153.346 111.719 153.939 110.481 153.939 108.914C153.939 107.347 153.39 106.138 152.291 105.289C151.192 104.424 149.2 103.575 146.314 102.74Z" fill="#C4C4C4"/>
<path d="M48.1626 85.0078L49.0909 84.6359L48.8392 84.0078H48.1626V85.0078ZM58.6216 111.111L57.6933 111.483L58.6216 113.8L59.5498 111.483L58.6216 111.111ZM69.0806 85.0078V84.0078H68.404L68.1523 84.6359L69.0806 85.0078ZM74.5518 85.0078H75.5518V84.0078H74.5518V85.0078ZM74.5518 117V118H75.5518V117H74.5518ZM70.333 117H69.333V118H70.333V117ZM70.333 104.542L69.3334 104.512L69.333 104.527V104.542H70.333ZM70.7285 91.0942L71.7281 91.1236L69.8018 90.7185L70.7285 91.0942ZM60.2256 117V118H60.8992L61.1523 117.376L60.2256 117ZM56.9956 117L56.0689 117.376L56.3221 118H56.9956V117ZM46.5146 91.1602L47.4413 90.7843L45.5151 91.1913L46.5146 91.1602ZM46.9321 104.542H47.9321V104.526L47.9316 104.51L46.9321 104.542ZM46.9321 117V118H47.9321V117H46.9321ZM42.7134 117H41.7134V118H42.7134V117ZM42.7134 85.0078V84.0078H41.7134V85.0078H42.7134ZM47.2343 85.3797L57.6933 111.483L59.5498 110.739L49.0909 84.6359L47.2343 85.3797ZM59.5498 111.483L70.0088 85.3797L68.1523 84.6359L57.6933 110.739L59.5498 111.483ZM69.0806 86.0078H74.5518V84.0078H69.0806V86.0078ZM73.5518 85.0078V117H75.5518V85.0078H73.5518ZM74.5518 116H70.333V118H74.5518V116ZM71.333 117V104.542H69.333V117H71.333ZM71.3326 104.571L71.7281 91.1236L69.7289 91.0648L69.3334 104.512L71.3326 104.571ZM69.8018 90.7185L59.2989 116.624L61.1523 117.376L71.6552 91.47L69.8018 90.7185ZM60.2256 116H56.9956V118H60.2256V116ZM57.9223 116.624L47.4413 90.7843L45.588 91.536L56.0689 117.376L57.9223 116.624ZM45.5151 91.1913L45.9326 104.573L47.9316 104.51L47.5142 91.129L45.5151 91.1913ZM45.9321 104.542V117H47.9321V104.542H45.9321ZM46.9321 116H42.7134V118H46.9321V116ZM43.7134 117V85.0078H41.7134V117H43.7134ZM42.7134 86.0078H48.1626V84.0078H42.7134V86.0078ZM100.084 102.212V103.212H101.084V102.212H100.084ZM86.2192 102.212V101.212H85.2192V102.212H86.2192ZM86.2192 113.55H85.2192V114.55H86.2192V113.55ZM102.325 113.55H103.325V112.55H102.325V113.55ZM102.325 117V118H103.325V117H102.325ZM82.0005 117H81.0005V118H82.0005V117ZM82.0005 85.0078V84.0078H81.0005V85.0078H82.0005ZM102.105 85.0078H103.105V84.0078H102.105V85.0078ZM102.105 88.4795V89.4795H103.105V88.4795H102.105ZM86.2192 88.4795V87.4795H85.2192V88.4795H86.2192ZM86.2192 98.7627H85.2192V99.7627H86.2192V98.7627ZM100.084 98.7627H101.084V97.7627H100.084V98.7627ZM100.084 101.212H86.2192V103.212H100.084V101.212ZM85.2192 102.212V113.55H87.2192V102.212H85.2192ZM86.2192 114.55H102.325V112.55H86.2192V114.55ZM101.325 113.55V117H103.325V113.55H101.325ZM102.325 116H82.0005V118H102.325V116ZM83.0005 117V85.0078H81.0005V117H83.0005ZM82.0005 86.0078H102.105V84.0078H82.0005V86.0078ZM101.105 85.0078V88.4795H103.105V85.0078H101.105ZM102.105 87.4795H86.2192V89.4795H102.105V87.4795ZM85.2192 88.4795V98.7627H87.2192V88.4795H85.2192ZM86.2192 99.7627H100.084V97.7627H86.2192V99.7627ZM99.084 98.7627V102.212H101.084V98.7627H99.084ZM131.109 106.849L132.103 106.965L132.233 105.849H131.109V106.849ZM127.352 114.693L128.01 115.446L128.011 115.445L127.352 114.693ZM109.884 113.375L109.117 114.017L109.119 114.019L109.884 113.375ZM108.06 91.5776L107.156 91.1493L107.154 91.1541L108.06 91.5776ZM112.586 86.3921L113.111 87.2433L113.116 87.2404L112.586 86.3921ZM127.528 87.4248L126.847 88.1576L126.85 88.1602L127.528 87.4248ZM131.109 95.291V96.291H132.215L132.104 95.1911L131.109 95.291ZM126.869 95.291L125.879 95.4332L126.002 96.291H126.869V95.291ZM124.474 89.7539L123.789 90.4826L123.793 90.4867L124.474 89.7539ZM113.004 91.0283L112.212 90.4172L112.21 90.4209L113.004 91.0283ZM124.364 112.408L125.01 113.171L125.011 113.17L124.364 112.408ZM126.869 106.849V105.849H126.012L125.881 106.695L126.869 106.849ZM130.116 106.733C129.743 109.926 128.578 112.291 126.694 113.94L128.011 115.445C130.345 113.403 131.685 110.539 132.103 106.965L130.116 106.733ZM126.694 113.94C124.824 115.574 122.288 116.439 118.98 116.439V118.439C122.645 118.439 125.691 117.473 128.01 115.446L126.694 113.94ZM118.98 116.439C115.474 116.439 112.73 115.198 110.648 112.73L109.119 114.019C111.608 116.971 114.929 118.439 118.98 118.439V116.439ZM110.65 112.732C108.569 110.248 107.478 106.872 107.478 102.498H105.478C105.478 107.206 106.657 111.081 109.117 114.017L110.65 112.732ZM107.478 102.498V99.4219H105.478V102.498H107.478ZM107.478 99.4219C107.478 96.5666 107.984 94.1012 108.966 92.0012L107.154 91.1541C106.027 93.5658 105.478 96.3299 105.478 99.4219H107.478ZM108.964 92.006C109.958 89.9082 111.342 88.3339 113.111 87.2433L112.062 85.5409C109.934 86.8526 108.301 88.7353 107.156 91.1493L108.964 92.006ZM113.116 87.2404C114.887 86.135 116.955 85.5684 119.354 85.5684V83.5684C116.626 83.5684 114.182 84.2176 112.057 85.5437L113.116 87.2404ZM119.354 85.5684C122.557 85.5684 125.02 86.4603 126.847 88.1576L128.208 86.692C125.935 84.5807 122.948 83.5684 119.354 83.5684V85.5684ZM126.85 88.1602C128.685 89.8509 129.797 92.2266 130.114 95.3909L132.104 95.1911C131.748 91.6464 130.472 88.778 128.205 86.6894L126.85 88.1602ZM131.109 94.291H126.869V96.291H131.109V94.291ZM127.858 95.1488C127.476 92.4884 126.621 90.3833 125.154 89.0211L123.793 90.4867C124.787 91.4097 125.529 92.996 125.879 95.4332L127.858 95.1488ZM125.158 89.0252C123.705 87.6588 121.723 87.04 119.354 87.04V89.04C121.38 89.04 122.811 89.5638 123.789 90.4826L125.158 89.0252ZM119.354 87.04C116.374 87.04 113.955 88.1603 112.212 90.4172L113.795 91.6394C115.129 89.9119 116.943 89.04 119.354 89.04V87.04ZM112.21 90.4209C110.503 92.6521 109.719 95.7338 109.719 99.5317H111.719C111.719 95.9762 112.458 93.3889 113.798 91.6358L112.21 90.4209ZM109.719 99.5317V102.63H111.719V99.5317H109.719ZM109.719 102.63C109.719 106.231 110.47 109.218 112.078 111.491L113.711 110.336C112.418 108.508 111.719 105.972 111.719 102.63H109.719ZM112.078 111.491C113.723 113.819 116.063 114.99 118.98 114.99V112.99C116.683 112.99 114.965 112.11 113.711 110.336L112.078 111.491ZM118.98 114.99C121.46 114.99 123.52 114.433 125.01 113.171L123.717 111.645C122.718 112.492 121.189 112.99 118.98 112.99V114.99ZM125.011 113.17C126.537 111.875 127.431 109.739 127.857 107.002L125.881 106.695C125.486 109.231 124.71 110.802 123.717 111.645L125.011 113.17ZM126.869 107.849H131.109V105.849H126.869V107.849ZM146.314 102.74L146.592 101.779L146.591 101.779L146.314 102.74ZM138.404 98.9165L137.724 99.6493L137.731 99.6556L138.404 98.9165ZM138.954 87.0513L139.587 87.8255L139.587 87.825L138.954 87.0513ZM152.687 85.8428L152.242 86.7387L152.245 86.7402L152.687 85.8428ZM156.686 89.3584L155.838 89.8899L155.842 89.8958L156.686 89.3584ZM158.114 94.2583V95.2583H159.114V94.2583H158.114ZM153.873 94.2583H152.873V95.2583H153.873V94.2583ZM152.027 89.71L151.356 90.4515L151.361 90.4559L152.027 89.71ZM141.942 89.4243L142.559 90.211L142.561 90.21L141.942 89.4243ZM141.854 96.5435L141.217 97.3142L141.222 97.3188L141.228 97.3233L141.854 96.5435ZM147.501 99.0044L147.23 99.9669L147.231 99.9673L147.501 99.0044ZM153.741 101.487L153.222 102.342L153.232 102.348L153.741 101.487ZM157.081 104.629L156.223 105.142L156.227 105.15L157.081 104.629ZM155.147 115.11L155.757 115.903L155.76 115.901L155.147 115.11ZM140.887 116.187L140.48 117.1L140.486 117.103L140.887 116.187ZM136.471 112.715L135.651 113.289L135.655 113.294L136.471 112.715ZM134.933 107.728V106.728H133.933V107.728H134.933ZM139.173 107.728H140.173V106.728H139.173V107.728ZM141.305 112.32L140.683 113.103L140.692 113.11L141.305 112.32ZM152.291 105.289L151.673 106.075L151.679 106.08L152.291 105.289ZM146.591 101.779C143.032 100.756 140.567 99.5349 139.078 98.1775L137.731 99.6556C139.552 101.316 142.36 102.644 146.038 103.701L146.591 101.779ZM139.085 98.1837C137.647 96.8483 136.943 95.2383 136.943 93.2915H134.943C134.943 95.7979 135.881 97.9378 137.724 99.6493L139.085 98.1837ZM136.943 93.2915C136.943 91.0819 137.804 89.2825 139.587 87.8255L138.321 86.2771C136.089 88.1013 134.943 90.462 134.943 93.2915H136.943ZM139.587 87.825C141.391 86.3478 143.773 85.5684 146.82 85.5684V83.5684C143.422 83.5684 140.559 84.4442 138.32 86.2776L139.587 87.825ZM146.82 85.5684C148.886 85.5684 150.686 85.9671 152.242 86.7387L153.131 84.9468C151.26 84.0193 149.148 83.5684 146.82 83.5684V85.5684ZM152.245 86.7402C153.823 87.5157 155.009 88.5674 155.838 89.8899L157.533 88.8269C156.487 87.1611 155.007 85.8691 153.128 84.9453L152.245 86.7402ZM155.842 89.8958C156.692 91.2293 157.114 92.6762 157.114 94.2583H159.114C159.114 92.2955 158.583 90.4758 157.529 88.821L155.842 89.8958ZM158.114 93.2583H153.873V95.2583H158.114V93.2583ZM154.873 94.2583C154.873 92.0937 154.173 90.2855 152.693 88.964L151.361 90.4559C152.342 91.3317 152.873 92.5557 152.873 94.2583H154.873ZM152.698 88.9684C151.228 87.6379 149.221 87.04 146.82 87.04V89.04C148.901 89.04 150.366 89.5555 151.356 90.4515L152.698 88.9684ZM146.82 87.04C144.602 87.04 142.729 87.5313 141.323 88.6387L142.561 90.21C143.498 89.4716 144.877 89.04 146.82 89.04V87.04ZM141.325 88.6377C139.898 89.7571 139.206 91.3295 139.206 93.2256H141.206C141.206 91.8697 141.671 90.9079 142.559 90.211L141.325 88.6377ZM139.206 93.2256C139.206 94.8577 139.913 96.2362 141.217 97.3142L142.491 95.7727C141.598 95.0343 141.206 94.2009 141.206 93.2256H139.206ZM141.228 97.3233C142.504 98.3472 144.547 99.211 147.23 99.9669L147.772 98.0419C145.152 97.3037 143.431 96.5268 142.48 95.7636L141.228 97.3233ZM147.231 99.9673C149.854 100.702 151.837 101.5 153.222 102.342L154.261 100.633C152.657 99.658 150.48 98.8006 147.771 98.0415L147.231 99.9673ZM153.232 102.348C154.633 103.177 155.609 104.116 156.223 105.142L157.939 104.116C157.117 102.74 155.867 101.584 154.251 100.627L153.232 102.348ZM156.227 105.15C156.85 106.171 157.18 107.399 157.18 108.87H159.18C159.18 107.09 158.777 105.49 157.935 104.109L156.227 105.15ZM157.18 108.87C157.18 111.159 156.308 112.945 154.535 114.32L155.76 115.901C158.03 114.141 159.18 111.767 159.18 108.87H157.18ZM154.538 114.317C152.741 115.698 150.275 116.439 147.04 116.439V118.439C150.572 118.439 153.511 117.628 155.757 115.903L154.538 114.317ZM147.04 116.439C144.973 116.439 143.059 116.048 141.289 115.271L140.486 117.103C142.524 117.996 144.712 118.439 147.04 118.439V116.439ZM141.295 115.274C139.527 114.485 138.207 113.433 137.286 112.136L135.655 113.294C136.815 114.927 138.439 116.19 140.48 117.1L141.295 115.274ZM137.29 112.142C136.387 110.852 135.933 109.392 135.933 107.728H133.933C133.933 109.784 134.503 111.649 135.651 113.289L137.29 112.142ZM134.933 108.728H139.173V106.728H134.933V108.728ZM138.173 107.728C138.173 109.943 139.006 111.771 140.683 113.103L141.926 111.537C140.762 110.612 140.173 109.379 140.173 107.728H138.173ZM140.692 113.11C142.351 114.397 144.5 114.99 147.04 114.99V112.99C144.804 112.99 143.13 112.47 141.918 111.53L140.692 113.11ZM147.04 114.99C149.383 114.99 151.339 114.515 152.767 113.422L151.551 111.833C150.606 112.557 149.149 112.99 147.04 112.99V114.99ZM152.767 113.422C154.214 112.314 154.939 110.775 154.939 108.914H152.939C152.939 110.188 152.477 111.125 151.551 111.833L152.767 113.422ZM154.939 108.914C154.939 107.082 154.28 105.563 152.903 104.498L151.679 106.08C152.499 106.714 152.939 107.611 152.939 108.914H154.939ZM152.909 104.503C151.648 103.51 149.492 102.618 146.592 101.779L146.037 103.7C148.908 104.531 150.737 105.339 151.673 106.075L152.909 104.503Z" fill="black"/>
<g filter="url(#filter0_b)">
<path d="M248.367 49.4062L255.75 69.0234L263.115 49.4062H268.863V75H264.434V66.5625L264.873 55.2773L257.314 75H254.133L246.592 55.2949L247.031 66.5625V75H242.602V49.4062H248.367ZM280.377 68.8828L284.244 55.9805H288.797L281.238 77.8828C280.078 81.082 278.109 82.6816 275.332 82.6816C274.711 82.6816 274.025 82.5762 273.275 82.3652V79.0605L274.084 79.1133C275.162 79.1133 275.971 78.9141 276.51 78.5156C277.061 78.1289 277.494 77.4727 277.811 76.5469L278.426 74.9121L271.746 55.9805H276.352L280.377 68.8828ZM315.604 63.5742H305.092V71.4492H317.379V75H300.645V49.4062H317.256V52.9922H305.092V60.0586H315.604V63.5742ZM328.875 65.8418H319.646V62.3965H328.875V65.8418ZM352.342 66.668C352.084 69.3984 351.076 71.5312 349.318 73.0664C347.561 74.5898 345.223 75.3516 342.305 75.3516C340.266 75.3516 338.467 74.8711 336.908 73.9102C335.361 72.9375 334.166 71.5605 333.322 69.7793C332.479 67.998 332.039 65.9297 332.004 63.5742V61.1836C332.004 58.7695 332.432 56.6426 333.287 54.8027C334.143 52.9629 335.367 51.5449 336.961 50.5488C338.566 49.5527 340.418 49.0547 342.516 49.0547C345.34 49.0547 347.613 49.8223 349.336 51.3574C351.059 52.8926 352.061 55.0605 352.342 57.8613H347.912C347.701 56.0215 347.162 54.6973 346.295 53.8887C345.439 53.0684 344.18 52.6582 342.516 52.6582C340.582 52.6582 339.094 53.3672 338.051 54.7852C337.02 56.1914 336.492 58.2598 336.469 60.9902V63.2578C336.469 66.0234 336.961 68.1328 337.945 69.5859C338.941 71.0391 340.395 71.7656 342.305 71.7656C344.051 71.7656 345.363 71.373 346.242 70.5879C347.121 69.8027 347.678 68.4961 347.912 66.668H352.342ZM355.119 65.3145C355.119 63.4512 355.488 61.7754 356.227 60.2871C356.965 58.7871 358.002 57.6387 359.338 56.8418C360.674 56.0332 362.209 55.6289 363.943 55.6289C366.51 55.6289 368.59 56.4551 370.184 58.1074C371.789 59.7598 372.656 61.9512 372.785 64.6816L372.803 65.6836C372.803 67.5586 372.439 69.2344 371.713 70.7109C370.998 72.1875 369.967 73.3301 368.619 74.1387C367.283 74.9473 365.736 75.3516 363.979 75.3516C361.295 75.3516 359.145 74.4609 357.527 72.6797C355.922 70.8867 355.119 68.502 355.119 65.5254V65.3145ZM359.391 65.6836C359.391 67.6406 359.795 69.1758 360.604 70.2891C361.412 71.3906 362.537 71.9414 363.979 71.9414C365.42 71.9414 366.539 71.3789 367.336 70.2539C368.145 69.1289 368.549 67.4824 368.549 65.3145C368.549 63.3926 368.133 61.8691 367.301 60.7441C366.48 59.6191 365.361 59.0566 363.943 59.0566C362.549 59.0566 361.441 59.6133 360.621 60.7266C359.801 61.8281 359.391 63.4805 359.391 65.6836ZM380.432 55.9805L380.555 57.9668C381.891 56.4082 383.719 55.6289 386.039 55.6289C388.582 55.6289 390.322 56.6016 391.26 58.5469C392.643 56.6016 394.588 55.6289 397.096 55.6289C399.193 55.6289 400.752 56.209 401.771 57.3691C402.803 58.5293 403.33 60.2402 403.354 62.502V75H399.082V62.625C399.082 61.418 398.818 60.5332 398.291 59.9707C397.764 59.4082 396.891 59.127 395.672 59.127C394.699 59.127 393.902 59.3906 393.281 59.918C392.672 60.4336 392.244 61.1133 391.998 61.957L392.016 75H387.744V62.4844C387.686 60.2461 386.543 59.127 384.316 59.127C382.605 59.127 381.393 59.8242 380.678 61.2188V75H376.406V55.9805H380.432ZM411.756 55.9805L411.879 57.9668C413.215 56.4082 415.043 55.6289 417.363 55.6289C419.906 55.6289 421.646 56.6016 422.584 58.5469C423.967 56.6016 425.912 55.6289 428.42 55.6289C430.518 55.6289 432.076 56.209 433.096 57.3691C434.127 58.5293 434.654 60.2402 434.678 62.502V75H430.406V62.625C430.406 61.418 430.143 60.5332 429.615 59.9707C429.088 59.4082 428.215 59.127 426.996 59.127C426.023 59.127 425.227 59.3906 424.605 59.918C423.996 60.4336 423.568 61.1133 423.322 61.957L423.34 75H419.068V62.4844C419.01 60.2461 417.867 59.127 415.641 59.127C413.93 59.127 412.717 59.8242 412.002 61.2188V75H407.73V55.9805H411.756ZM447.439 75.3516C444.732 75.3516 442.535 74.502 440.848 72.8027C439.172 71.0918 438.334 68.8184 438.334 65.9824V65.4551C438.334 63.5566 438.697 61.8633 439.424 60.375C440.162 58.875 441.193 57.709 442.518 56.877C443.842 56.0449 445.318 55.6289 446.947 55.6289C449.537 55.6289 451.535 56.4551 452.941 58.1074C454.359 59.7598 455.068 62.0977 455.068 65.1211V66.8438H442.641C442.77 68.4141 443.291 69.6562 444.205 70.5703C445.131 71.4844 446.291 71.9414 447.686 71.9414C449.643 71.9414 451.236 71.1504 452.467 69.5684L454.77 71.7656C454.008 72.9023 452.988 73.7871 451.711 74.4199C450.445 75.041 449.021 75.3516 447.439 75.3516ZM446.93 59.0566C445.758 59.0566 444.809 59.4668 444.082 60.2871C443.367 61.1074 442.91 62.25 442.711 63.7148H450.85V63.3984C450.756 61.9688 450.375 60.8906 449.707 60.1641C449.039 59.4258 448.113 59.0566 446.93 59.0566ZM468.357 59.8828C467.795 59.7891 467.215 59.7422 466.617 59.7422C464.66 59.7422 463.342 60.4922 462.662 61.9922V75H458.391V55.9805H462.469L462.574 58.1074C463.605 56.4551 465.035 55.6289 466.863 55.6289C467.473 55.6289 467.977 55.7109 468.375 55.875L468.357 59.8828ZM478.518 71.9414C479.584 71.9414 480.469 71.6309 481.172 71.0098C481.875 70.3887 482.25 69.6211 482.297 68.707H486.322C486.275 69.8906 485.906 70.998 485.215 72.0293C484.523 73.0488 483.586 73.8574 482.402 74.4551C481.219 75.0527 479.941 75.3516 478.57 75.3516C475.91 75.3516 473.801 74.4902 472.242 72.7676C470.684 71.0449 469.904 68.666 469.904 65.6309V65.1914C469.904 62.2969 470.678 59.9824 472.225 58.248C473.771 56.502 475.881 55.6289 478.553 55.6289C480.814 55.6289 482.654 56.291 484.072 57.6152C485.502 58.9277 486.252 60.6562 486.322 62.8008H482.297C482.25 61.7109 481.875 60.8145 481.172 60.1113C480.48 59.4082 479.596 59.0566 478.518 59.0566C477.135 59.0566 476.068 59.5605 475.318 60.5684C474.568 61.5645 474.188 63.082 474.176 65.1211V65.8066C474.176 67.8691 474.545 69.4102 475.283 70.4297C476.033 71.4375 477.111 71.9414 478.518 71.9414ZM497.924 75.3516C495.217 75.3516 493.02 74.502 491.332 72.8027C489.656 71.0918 488.818 68.8184 488.818 65.9824V65.4551C488.818 63.5566 489.182 61.8633 489.908 60.375C490.646 58.875 491.678 57.709 493.002 56.877C494.326 56.0449 495.803 55.6289 497.432 55.6289C500.021 55.6289 502.02 56.4551 503.426 58.1074C504.844 59.7598 505.553 62.0977 505.553 65.1211V66.8438H493.125C493.254 68.4141 493.775 69.6562 494.689 70.5703C495.615 71.4844 496.775 71.9414 498.17 71.9414C500.127 71.9414 501.721 71.1504 502.951 69.5684L505.254 71.7656C504.492 72.9023 503.473 73.7871 502.195 74.4199C500.93 75.041 499.506 75.3516 497.924 75.3516ZM497.414 59.0566C496.242 59.0566 495.293 59.4668 494.566 60.2871C493.852 61.1074 493.395 62.25 493.195 63.7148H501.334V63.3984C501.24 61.9688 500.859 60.8906 500.191 60.1641C499.523 59.4258 498.598 59.0566 497.414 59.0566Z" fill="#C4C4C4"/>
<path d="M248.367 49.4062L255.75 69.0234L263.115 49.4062H268.863V75H264.434V66.5625L264.873 55.2773L257.314 75H254.133L246.592 55.2949L247.031 66.5625V75H242.602V49.4062H248.367ZM280.377 68.8828L284.244 55.9805H288.797L281.238 77.8828C280.078 81.082 278.109 82.6816 275.332 82.6816C274.711 82.6816 274.025 82.5762 273.275 82.3652V79.0605L274.084 79.1133C275.162 79.1133 275.971 78.9141 276.51 78.5156C277.061 78.1289 277.494 77.4727 277.811 76.5469L278.426 74.9121L271.746 55.9805H276.352L280.377 68.8828ZM315.604 63.5742H305.092V71.4492H317.379V75H300.645V49.4062H317.256V52.9922H305.092V60.0586H315.604V63.5742ZM328.875 65.8418H319.646V62.3965H328.875V65.8418ZM352.342 66.668C352.084 69.3984 351.076 71.5312 349.318 73.0664C347.561 74.5898 345.223 75.3516 342.305 75.3516C340.266 75.3516 338.467 74.8711 336.908 73.9102C335.361 72.9375 334.166 71.5605 333.322 69.7793C332.479 67.998 332.039 65.9297 332.004 63.5742V61.1836C332.004 58.7695 332.432 56.6426 333.287 54.8027C334.143 52.9629 335.367 51.5449 336.961 50.5488C338.566 49.5527 340.418 49.0547 342.516 49.0547C345.34 49.0547 347.613 49.8223 349.336 51.3574C351.059 52.8926 352.061 55.0605 352.342 57.8613H347.912C347.701 56.0215 347.162 54.6973 346.295 53.8887C345.439 53.0684 344.18 52.6582 342.516 52.6582C340.582 52.6582 339.094 53.3672 338.051 54.7852C337.02 56.1914 336.492 58.2598 336.469 60.9902V63.2578C336.469 66.0234 336.961 68.1328 337.945 69.5859C338.941 71.0391 340.395 71.7656 342.305 71.7656C344.051 71.7656 345.363 71.373 346.242 70.5879C347.121 69.8027 347.678 68.4961 347.912 66.668H352.342ZM355.119 65.3145C355.119 63.4512 355.488 61.7754 356.227 60.2871C356.965 58.7871 358.002 57.6387 359.338 56.8418C360.674 56.0332 362.209 55.6289 363.943 55.6289C366.51 55.6289 368.59 56.4551 370.184 58.1074C371.789 59.7598 372.656 61.9512 372.785 64.6816L372.803 65.6836C372.803 67.5586 372.439 69.2344 371.713 70.7109C370.998 72.1875 369.967 73.3301 368.619 74.1387C367.283 74.9473 365.736 75.3516 363.979 75.3516C361.295 75.3516 359.145 74.4609 357.527 72.6797C355.922 70.8867 355.119 68.502 355.119 65.5254V65.3145ZM359.391 65.6836C359.391 67.6406 359.795 69.1758 360.604 70.2891C361.412 71.3906 362.537 71.9414 363.979 71.9414C365.42 71.9414 366.539 71.3789 367.336 70.2539C368.145 69.1289 368.549 67.4824 368.549 65.3145C368.549 63.3926 368.133 61.8691 367.301 60.7441C366.48 59.6191 365.361 59.0566 363.943 59.0566C362.549 59.0566 361.441 59.6133 360.621 60.7266C359.801 61.8281 359.391 63.4805 359.391 65.6836ZM380.432 55.9805L380.555 57.9668C381.891 56.4082 383.719 55.6289 386.039 55.6289C388.582 55.6289 390.322 56.6016 391.26 58.5469C392.643 56.6016 394.588 55.6289 397.096 55.6289C399.193 55.6289 400.752 56.209 401.771 57.3691C402.803 58.5293 403.33 60.2402 403.354 62.502V75H399.082V62.625C399.082 61.418 398.818 60.5332 398.291 59.9707C397.764 59.4082 396.891 59.127 395.672 59.127C394.699 59.127 393.902 59.3906 393.281 59.918C392.672 60.4336 392.244 61.1133 391.998 61.957L392.016 75H387.744V62.4844C387.686 60.2461 386.543 59.127 384.316 59.127C382.605 59.127 381.393 59.8242 380.678 61.2188V75H376.406V55.9805H380.432ZM411.756 55.9805L411.879 57.9668C413.215 56.4082 415.043 55.6289 417.363 55.6289C419.906 55.6289 421.646 56.6016 422.584 58.5469C423.967 56.6016 425.912 55.6289 428.42 55.6289C430.518 55.6289 432.076 56.209 433.096 57.3691C434.127 58.5293 434.654 60.2402 434.678 62.502V75H430.406V62.625C430.406 61.418 430.143 60.5332 429.615 59.9707C429.088 59.4082 428.215 59.127 426.996 59.127C426.023 59.127 425.227 59.3906 424.605 59.918C423.996 60.4336 423.568 61.1133 423.322 61.957L423.34 75H419.068V62.4844C419.01 60.2461 417.867 59.127 415.641 59.127C413.93 59.127 412.717 59.8242 412.002 61.2188V75H407.73V55.9805H411.756ZM447.439 75.3516C444.732 75.3516 442.535 74.502 440.848 72.8027C439.172 71.0918 438.334 68.8184 438.334 65.9824V65.4551C438.334 63.5566 438.697 61.8633 439.424 60.375C440.162 58.875 441.193 57.709 442.518 56.877C443.842 56.0449 445.318 55.6289 446.947 55.6289C449.537 55.6289 451.535 56.4551 452.941 58.1074C454.359 59.7598 455.068 62.0977 455.068 65.1211V66.8438H442.641C442.77 68.4141 443.291 69.6562 444.205 70.5703C445.131 71.4844 446.291 71.9414 447.686 71.9414C449.643 71.9414 451.236 71.1504 452.467 69.5684L454.77 71.7656C454.008 72.9023 452.988 73.7871 451.711 74.4199C450.445 75.041 449.021 75.3516 447.439 75.3516ZM446.93 59.0566C445.758 59.0566 444.809 59.4668 444.082 60.2871C443.367 61.1074 442.91 62.25 442.711 63.7148H450.85V63.3984C450.756 61.9688 450.375 60.8906 449.707 60.1641C449.039 59.4258 448.113 59.0566 446.93 59.0566ZM468.357 59.8828C467.795 59.7891 467.215 59.7422 466.617 59.7422C464.66 59.7422 463.342 60.4922 462.662 61.9922V75H458.391V55.9805H462.469L462.574 58.1074C463.605 56.4551 465.035 55.6289 466.863 55.6289C467.473 55.6289 467.977 55.7109 468.375 55.875L468.357 59.8828ZM478.518 71.9414C479.584 71.9414 480.469 71.6309 481.172 71.0098C481.875 70.3887 482.25 69.6211 482.297 68.707H486.322C486.275 69.8906 485.906 70.998 485.215 72.0293C484.523 73.0488 483.586 73.8574 482.402 74.4551C481.219 75.0527 479.941 75.3516 478.57 75.3516C475.91 75.3516 473.801 74.4902 472.242 72.7676C470.684 71.0449 469.904 68.666 469.904 65.6309V65.1914C469.904 62.2969 470.678 59.9824 472.225 58.248C473.771 56.502 475.881 55.6289 478.553 55.6289C480.814 55.6289 482.654 56.291 484.072 57.6152C485.502 58.9277 486.252 60.6562 486.322 62.8008H482.297C482.25 61.7109 481.875 60.8145 481.172 60.1113C480.48 59.4082 479.596 59.0566 478.518 59.0566C477.135 59.0566 476.068 59.5605 475.318 60.5684C474.568 61.5645 474.188 63.082 474.176 65.1211V65.8066C474.176 67.8691 474.545 69.4102 475.283 70.4297C476.033 71.4375 477.111 71.9414 478.518 71.9414ZM497.924 75.3516C495.217 75.3516 493.02 74.502 491.332 72.8027C489.656 71.0918 488.818 68.8184 488.818 65.9824V65.4551C488.818 63.5566 489.182 61.8633 489.908 60.375C490.646 58.875 491.678 57.709 493.002 56.877C494.326 56.0449 495.803 55.6289 497.432 55.6289C500.021 55.6289 502.02 56.4551 503.426 58.1074C504.844 59.7598 505.553 62.0977 505.553 65.1211V66.8438H493.125C493.254 68.4141 493.775 69.6562 494.689 70.5703C495.615 71.4844 496.775 71.9414 498.17 71.9414C500.127 71.9414 501.721 71.1504 502.951 69.5684L505.254 71.7656C504.492 72.9023 503.473 73.7871 502.195 74.4199C500.93 75.041 499.506 75.3516 497.924 75.3516ZM497.414 59.0566C496.242 59.0566 495.293 59.4668 494.566 60.2871C493.852 61.1074 493.395 62.25 493.195 63.7148H501.334V63.3984C501.24 61.9688 500.859 60.8906 500.191 60.1641C499.523 59.4258 498.598 59.0566 497.414 59.0566Z" fill="url(#paint0_linear)"/>
</g>
<g filter="url(#filter1_d)">
<path d="M284.688 137.719C279.542 136.24 275.792 134.427 273.438 132.281C271.104 130.115 269.938 127.448 269.938 124.281C269.938 120.698 271.365 117.74 274.219 115.406C277.094 113.052 280.823 111.875 285.406 111.875C288.531 111.875 291.312 112.479 293.75 113.688C296.208 114.896 298.104 116.562 299.438 118.688C300.792 120.812 301.469 123.135 301.469 125.656H295.438C295.438 122.906 294.562 120.75 292.812 119.188C291.062 117.604 288.594 116.812 285.406 116.812C282.448 116.812 280.135 117.469 278.469 118.781C276.823 120.073 276 121.875 276 124.188C276 126.042 276.781 127.615 278.344 128.906C279.927 130.177 282.604 131.344 286.375 132.406C290.167 133.469 293.125 134.646 295.25 135.938C297.396 137.208 298.979 138.698 300 140.406C301.042 142.115 301.562 144.125 301.562 146.438C301.562 150.125 300.125 153.083 297.25 155.312C294.375 157.521 290.531 158.625 285.719 158.625C282.594 158.625 279.677 158.031 276.969 156.844C274.26 155.635 272.167 153.99 270.688 151.906C269.229 149.823 268.5 147.458 268.5 144.812H274.531C274.531 147.562 275.542 149.74 277.562 151.344C279.604 152.927 282.323 153.719 285.719 153.719C288.885 153.719 291.312 153.073 293 151.781C294.688 150.49 295.531 148.729 295.531 146.5C295.531 144.271 294.75 142.552 293.188 141.344C291.625 140.115 288.792 138.906 284.688 137.719ZM329.25 158C328.917 157.333 328.646 156.146 328.438 154.438C325.75 157.229 322.542 158.625 318.812 158.625C315.479 158.625 312.74 157.688 310.594 155.812C308.469 153.917 307.406 151.521 307.406 148.625C307.406 145.104 308.74 142.375 311.406 140.438C314.094 138.479 317.865 137.5 322.719 137.5H328.344V134.844C328.344 132.823 327.74 131.219 326.531 130.031C325.323 128.823 323.542 128.219 321.188 128.219C319.125 128.219 317.396 128.74 316 129.781C314.604 130.823 313.906 132.083 313.906 133.562H308.094C308.094 131.875 308.688 130.25 309.875 128.688C311.083 127.104 312.708 125.854 314.75 124.938C316.812 124.021 319.073 123.562 321.531 123.562C325.427 123.562 328.479 124.542 330.688 126.5C332.896 128.438 334.042 131.115 334.125 134.531V150.094C334.125 153.198 334.521 155.667 335.312 157.5V158H329.25ZM319.656 153.594C321.469 153.594 323.188 153.125 324.812 152.188C326.438 151.25 327.615 150.031 328.344 148.531V141.594H323.812C316.729 141.594 313.188 143.667 313.188 147.812C313.188 149.625 313.792 151.042 315 152.062C316.208 153.083 317.76 153.594 319.656 153.594ZM348.625 124.188L348.781 127.938C351.26 125.021 354.604 123.562 358.812 123.562C363.542 123.562 366.76 125.375 368.469 129C369.594 127.375 371.052 126.062 372.844 125.062C374.656 124.062 376.792 123.562 379.25 123.562C386.667 123.562 390.438 127.49 390.562 135.344V158H384.781V135.688C384.781 133.271 384.229 131.469 383.125 130.281C382.021 129.073 380.167 128.469 377.562 128.469C375.417 128.469 373.635 129.115 372.219 130.406C370.802 131.677 369.979 133.396 369.75 135.562V158H363.938V135.844C363.938 130.927 361.531 128.469 356.719 128.469C352.927 128.469 350.333 130.083 348.938 133.312V158H343.156V124.188H348.625ZM427.875 141.469C427.875 146.615 426.698 150.76 424.344 153.906C421.99 157.052 418.802 158.625 414.781 158.625C410.677 158.625 407.448 157.323 405.094 154.719V171H399.312V124.188H404.594L404.875 127.938C407.229 125.021 410.5 123.562 414.688 123.562C418.75 123.562 421.958 125.094 424.312 128.156C426.688 131.219 427.875 135.479 427.875 140.938V141.469ZM422.094 140.812C422.094 137 421.281 133.99 419.656 131.781C418.031 129.573 415.802 128.469 412.969 128.469C409.469 128.469 406.844 130.021 405.094 133.125V149.281C406.823 152.365 409.469 153.906 413.031 153.906C415.802 153.906 418 152.812 419.625 150.625C421.271 148.417 422.094 145.146 422.094 140.812ZM441.531 158H435.75V110H441.531V158ZM464.844 158.625C460.26 158.625 456.531 157.125 453.656 154.125C450.781 151.104 449.344 147.073 449.344 142.031V140.969C449.344 137.615 449.979 134.625 451.25 132C452.542 129.354 454.333 127.292 456.625 125.812C458.938 124.312 461.438 123.562 464.125 123.562C468.521 123.562 471.938 125.01 474.375 127.906C476.812 130.802 478.031 134.948 478.031 140.344V142.75H455.125C455.208 146.083 456.177 148.781 458.031 150.844C459.906 152.885 462.281 153.906 465.156 153.906C467.198 153.906 468.927 153.49 470.344 152.656C471.76 151.823 473 150.719 474.062 149.344L477.594 152.094C474.76 156.448 470.51 158.625 464.844 158.625ZM464.125 128.312C461.792 128.312 459.833 129.167 458.25 130.875C456.667 132.562 455.688 134.938 455.312 138H472.25V137.562C472.083 134.625 471.292 132.354 469.875 130.75C468.458 129.125 466.542 128.312 464.125 128.312Z" fill="#18343F"/>
<path d="M284.688 137.719C279.542 136.24 275.792 134.427 273.438 132.281C271.104 130.115 269.938 127.448 269.938 124.281C269.938 120.698 271.365 117.74 274.219 115.406C277.094 113.052 280.823 111.875 285.406 111.875C288.531 111.875 291.312 112.479 293.75 113.688C296.208 114.896 298.104 116.562 299.438 118.688C300.792 120.812 301.469 123.135 301.469 125.656H295.438C295.438 122.906 294.562 120.75 292.812 119.188C291.062 117.604 288.594 116.812 285.406 116.812C282.448 116.812 280.135 117.469 278.469 118.781C276.823 120.073 276 121.875 276 124.188C276 126.042 276.781 127.615 278.344 128.906C279.927 130.177 282.604 131.344 286.375 132.406C290.167 133.469 293.125 134.646 295.25 135.938C297.396 137.208 298.979 138.698 300 140.406C301.042 142.115 301.562 144.125 301.562 146.438C301.562 150.125 300.125 153.083 297.25 155.312C294.375 157.521 290.531 158.625 285.719 158.625C282.594 158.625 279.677 158.031 276.969 156.844C274.26 155.635 272.167 153.99 270.688 151.906C269.229 149.823 268.5 147.458 268.5 144.812H274.531C274.531 147.562 275.542 149.74 277.562 151.344C279.604 152.927 282.323 153.719 285.719 153.719C288.885 153.719 291.312 153.073 293 151.781C294.688 150.49 295.531 148.729 295.531 146.5C295.531 144.271 294.75 142.552 293.188 141.344C291.625 140.115 288.792 138.906 284.688 137.719ZM329.25 158C328.917 157.333 328.646 156.146 328.438 154.438C325.75 157.229 322.542 158.625 318.812 158.625C315.479 158.625 312.74 157.688 310.594 155.812C308.469 153.917 307.406 151.521 307.406 148.625C307.406 145.104 308.74 142.375 311.406 140.438C314.094 138.479 317.865 137.5 322.719 137.5H328.344V134.844C328.344 132.823 327.74 131.219 326.531 130.031C325.323 128.823 323.542 128.219 321.188 128.219C319.125 128.219 317.396 128.74 316 129.781C314.604 130.823 313.906 132.083 313.906 133.562H308.094C308.094 131.875 308.688 130.25 309.875 128.688C311.083 127.104 312.708 125.854 314.75 124.938C316.812 124.021 319.073 123.562 321.531 123.562C325.427 123.562 328.479 124.542 330.688 126.5C332.896 128.438 334.042 131.115 334.125 134.531V150.094C334.125 153.198 334.521 155.667 335.312 157.5V158H329.25ZM319.656 153.594C321.469 153.594 323.188 153.125 324.812 152.188C326.438 151.25 327.615 150.031 328.344 148.531V141.594H323.812C316.729 141.594 313.188 143.667 313.188 147.812C313.188 149.625 313.792 151.042 315 152.062C316.208 153.083 317.76 153.594 319.656 153.594ZM348.625 124.188L348.781 127.938C351.26 125.021 354.604 123.562 358.812 123.562C363.542 123.562 366.76 125.375 368.469 129C369.594 127.375 371.052 126.062 372.844 125.062C374.656 124.062 376.792 123.562 379.25 123.562C386.667 123.562 390.438 127.49 390.562 135.344V158H384.781V135.688C384.781 133.271 384.229 131.469 383.125 130.281C382.021 129.073 380.167 128.469 377.562 128.469C375.417 128.469 373.635 129.115 372.219 130.406C370.802 131.677 369.979 133.396 369.75 135.562V158H363.938V135.844C363.938 130.927 361.531 128.469 356.719 128.469C352.927 128.469 350.333 130.083 348.938 133.312V158H343.156V124.188H348.625ZM427.875 141.469C427.875 146.615 426.698 150.76 424.344 153.906C421.99 157.052 418.802 158.625 414.781 158.625C410.677 158.625 407.448 157.323 405.094 154.719V171H399.312V124.188H404.594L404.875 127.938C407.229 125.021 410.5 123.562 414.688 123.562C418.75 123.562 421.958 125.094 424.312 128.156C426.688 131.219 427.875 135.479 427.875 140.938V141.469ZM422.094 140.812C422.094 137 421.281 133.99 419.656 131.781C418.031 129.573 415.802 128.469 412.969 128.469C409.469 128.469 406.844 130.021 405.094 133.125V149.281C406.823 152.365 409.469 153.906 413.031 153.906C415.802 153.906 418 152.812 419.625 150.625C421.271 148.417 422.094 145.146 422.094 140.812ZM441.531 158H435.75V110H441.531V158ZM464.844 158.625C460.26 158.625 456.531 157.125 453.656 154.125C450.781 151.104 449.344 147.073 449.344 142.031V140.969C449.344 137.615 449.979 134.625 451.25 132C452.542 129.354 454.333 127.292 456.625 125.812C458.938 124.312 461.438 123.562 464.125 123.562C468.521 123.562 471.938 125.01 474.375 127.906C476.812 130.802 478.031 134.948 478.031 140.344V142.75H455.125C455.208 146.083 456.177 148.781 458.031 150.844C459.906 152.885 462.281 153.906 465.156 153.906C467.198 153.906 468.927 153.49 470.344 152.656C471.76 151.823 473 150.719 474.062 149.344L477.594 152.094C474.76 156.448 470.51 158.625 464.844 158.625ZM464.125 128.312C461.792 128.312 459.833 129.167 458.25 130.875C456.667 132.562 455.688 134.938 455.312 138H472.25V137.562C472.083 134.625 471.292 132.354 469.875 130.75C468.458 129.125 466.542 128.312 464.125 128.312Z" fill="url(#paint1_linear)"/>
</g>
<defs>
<filter id="filter0_b" x="238.602" y="45.0547" width="270.951" height="41.627" filterUnits="userSpaceOnUse" color-interpolation-filters="sRGB">
<feFlood flood-opacity="0" result="BackgroundImageFix"/>
<feGaussianBlur in="BackgroundImage" stdDeviation="2"/>
<feComposite in2="SourceAlpha" operator="in" result="effect1_backgroundBlur"/>
<feBlend mode="normal" in="SourceGraphic" in2="effect1_backgroundBlur" result="shape"/>
</filter>
<filter id="filter1_d" x="264.5" y="110" width="217.531" height="69" filterUnits="userSpaceOnUse" color-interpolation-filters="sRGB">
<feFlood flood-opacity="0" result="BackgroundImageFix"/>
<feColorMatrix in="SourceAlpha" type="matrix" values="0 0 0 0 0 0 0 0 0 0 0 0 0 0 0 0 0 0 127 0"/>
<feOffset dy="4"/>
<feGaussianBlur stdDeviation="2"/>
<feColorMatrix type="matrix" values="0 0 0 0 0 0 0 0 0 0 0 0 0 0 0 0 0 0 0.25 0"/>
<feBlend mode="normal" in2="BackgroundImageFix" result="effect1_dropShadow"/>
<feBlend mode="normal" in="SourceGraphic" in2="effect1_dropShadow" result="shape"/>
</filter>
<linearGradient id="paint0_linear" x1="373.5" y1="42" x2="373.5" y2="84" gradientUnits="userSpaceOnUse">
<stop stop-color="#999999"/>
<stop offset="1" stop-color="white" stop-opacity="0"/>
</linearGradient>
<linearGradient id="paint1_linear" x1="373.5" y1="99" x2="373.5" y2="174" gradientUnits="userSpaceOnUse">
<stop offset="0.254579" stop-color="#18343F" stop-opacity="0.46"/>
<stop offset="1" stop-color="white" stop-opacity="0"/>
</linearGradient>
</defs>
</svg>
